<svg width="128" height="128" viewBox="0 0 128 128" fill="none" xmlns="http://www.w3.org/2000/svg">
<rect x="4" y="4" width="119" height="120" fill="white"/>
<path d="M0 0H4V4H0V0Z" fill="#212121"/>
<path d="M0 4H4V8H0V4Z" fill="#212121"/>
<path d="M0 8H4V12H0V8Z" fill="#212121"/>
<path d="M0 12H4V16H0V12Z" fill="#212121"/>
<path d="M0 16H4V20H0V16Z" fill="#212121"/>
<path d="M0 20H4V24H0V20Z" fill="#212121"/>
<path d="M0 24H4V28H0V24Z" fill="#212121"/>
<path d="M0 28H4V32H0V28Z" fill="#212121"/>
<path d="M0 32H4V36H0V32Z" fill="#212121"/>
<path d="M0 36H4V40H0V36Z" fill="#212121"/>
<path d="M0 40H4V44H0V40Z" fill="#212121"/>
<path d="M0 44H4V48H0V44Z" fill="#212121"/>
<path d="M0 48H4V52H0V48Z" fill="#212121"/>
<path d="M0 52H4V56H0V52Z" fill="#212121"/>
<path d="M0 56H4V60H0V56Z" fill="#212121"/>
<path d="M0 60H4V64H0V60Z" fill="#212121"/>
<path d="M0 64H4V68H0V64Z" fill="#212121"/>
<path d="M0 68H4V72H0V68Z" fill="#212121"/>
<path d="M0 72H4V76H0V72Z" fill="#212121"/>
<path d="M0 76H4V80H0V76Z" fill="#212121"/>
<path d="M0 80H4V84H0V80Z" fill="#212121"/>
<path d="M0 84H4V88H0V84Z" fill="#212121"/>
<path d="M0 88H4V92H0V88Z" fill="#212121"/>
<path d="M0 92H4V96H0V92Z" fill="#212121"/>
<path d="M0 96H4V100H0V96Z" fill="#212121"/>
<path d="M0 100H4V104H0V100Z" fill="#212121"/>
<path d="M0 104H4V108H0V104Z" fill="#212121"/>
<path d="M0 108H4V112H0V108Z" fill="#212121"/>
<path d="M0 112H4V116H0V112Z" fill="#212121"/>
<path d="M0 116H4V120H0V116Z" fill="#212121"/>
<path d="M0 120H4V124H0V120Z" fill="#212121"/>
<path d="M0 124H4V128H0V124Z" fill="#212121"/>
<path d="M36 0H40V4H36V0Z" fill="#212121"/>
<path d="M36 4H40V8H36V4Z" fill="#212121"/>
<path d="M36 8H40V12H36V8Z" fill="#212121"/>
<path d="M36 12H40V16H36V12Z" fill="#212121"/>
<path d="M36 16H40V20H36V16Z" fill="#212121"/>
<path d="M36 20H40V24H36V20Z" fill="#212121"/>
<path d="M40 20H44V24H40V20Z" fill="#212121"/>
<path d="M44 20H48V24H44V20Z" fill="#212121"/>
<path d="M48 20H52V24H48V20Z" fill="#212121"/>
<path d="M52 20H56V24H52V20Z" fill="#212121"/>
<path d="M56 20H60V24H56V20Z" fill="#212121"/>
<path d="M60 20H64V24H60V20Z" fill="#212121"/>
<path d="M64 20H68V24H64V20Z" fill="#212121"/>
<path d="M36 24H40V28H36V24Z" fill="#212121"/>
<path d="M40 24H44V28H40V24Z" fill="#212121"/>
<path d="M44 24H48V28H44V24Z" fill="#212121"/>
<path d="M48 24H52V28H48V24Z" fill="#212121"/>
<path d="M52 24H56V28H52V24Z" fill="#212121"/>
<path d="M56 24H60V28H56V24Z" fill="#212121"/>
<path d="M36 28H40V32H36V28Z" fill="#212121"/>
<path d="M40 28H44V32H40V28Z" fill="#212121"/>
<path d="M44 28H48V32H44V28Z" fill="#212121"/>
<path d="M48 28H52V32H48V28Z" fill="#212121"/>
<path d="M52 28H56V32H52V28Z" fill="#212121"/>
<path d="M36 32H40V36H36V32Z" fill="#212121"/>
<path d="M16 32H20V36H16V32Z" fill="#212121"/>
<path d="M16 28H20V32H16V28Z" fill="#212121"/>
<path d="M16 24H20V28H16V24Z" fill="#212121"/>
<path d="M40 32H44V36H40V32Z" fill="#212121"/>
<path d="M44 32H48V36H44V32Z" fill="#212121"/>
<path d="M48 32H52V36H48V32Z" fill="#212121"/>
<path d="M36 36H40V40H36V36Z" fill="#212121"/>
<path d="M40 36H44V40H40V36Z" fill="#212121"/>
<path d="M44 36H48V40H44V36Z" fill="#212121"/>
<path d="M48 36H52V40H48V36Z" fill="#212121"/>
<path d="M36 40H40V44H36V40Z" fill="#212121"/>
<path d="M40 40H44V44H40V40Z" fill="#212121"/>
<path d="M44 40H48V44H44V40Z" fill="#212121"/>
<path d="M36 44H40V48H36V44Z" fill="#212121"/>
<path d="M40 44H44V48H40V44Z" fill="#212121"/>
<path d="M44 44H48V48H44V44Z" fill="#212121"/>
<path d="M36 48H40V52H36V48Z" fill="#212121"/>
<path d="M40 48H44V52H40V48Z" fill="#212121"/>
<path d="M44 48H48V52H44V48Z" fill="#212121"/>
<path d="M36 52H40V56H36V52Z" fill="#212121"/>
<path d="M40 52H44V56H40V52Z" fill="#212121"/>
<path d="M44 52H48V56H44V52Z" fill="#212121"/>
<path d="M36 56H40V60H36V56Z" fill="#212121"/>
<path d="M40 56H44V60H40V56Z" fill="#212121"/>
<path d="M44 56H48V60H44V56Z" fill="#212121"/>
<path d="M36 60H40V64H36V60Z" fill="#212121"/>
<path d="M40 60H44V64H40V60Z" fill="#212121"/>
<path d="M44 60H48V64H44V60Z" fill="#212121"/>
<path d="M36 64H40V68H36V64Z" fill="#212121"/>
<path d="M40 64H44V68H40V64Z" fill="#212121"/>
<path d="M44 64H48V68H44V64Z" fill="#212121"/>
<path d="M36 68H40V72H36V68Z" fill="#212121"/>
<path d="M40 68H44V72H40V68Z" fill="#212121"/>
<path d="M44 68H48V72H44V68Z" fill="#212121"/>
<path d="M36 72H40V76H36V72Z" fill="#212121"/>
<path d="M40 72H44V76H40V72Z" fill="#212121"/>
<path d="M44 72H48V76H44V72Z" fill="#212121"/>
<path d="M36 76H40V80H36V76Z" fill="#212121"/>
<path d="M40 76H44V80H40V76Z" fill="#212121"/>
<path d="M44 76H48V80H44V76Z" fill="#212121"/>
<path d="M36 80H40V84H36V80Z" fill="#212121"/>
<path d="M40 80H44V84H40V80Z" fill="#212121"/>
<path d="M44 80H48V84H44V80Z" fill="#212121"/>
<path d="M36 84H40V88H36V84Z" fill="#212121"/>
<path d="M40 84H44V88H40V84Z" fill="#212121"/>
<path d="M44 84H48V88H44V84Z" fill="#212121"/>
<path d="M36 88H40V92H36V88Z" fill="#212121"/>
<path d="M40 88H44V92H40V88Z" fill="#212121"/>
<path d="M44 88H48V92H44V88Z" fill="#212121"/>
<path d="M36 92H40V96H36V92Z" fill="#212121"/>
<path d="M40 92H44V96H40V92Z" fill="#212121"/>
<path d="M44 92H48V96H44V92Z" fill="#212121"/>
<path d="M36 96H40V100H36V96Z" fill="#212121"/>
<path d="M40 96H44V100H40V96Z" fill="#212121"/>
<path d="M44 96H48V100H44V96Z" fill="#212121"/>
<path d="M36 100H40V104H36V100Z" fill="#212121"/>
<path d="M40 100H44V104H40V100Z" fill="#212121"/>
<path d="M36 108H40V112H36V108Z" fill="#212121"/>
<path d="M32 108H36V112H32V108Z" fill="#212121"/>
<path d="M28 108H32V112H28V108Z" fill="#212121"/>
<path d="M28 88H32V92H28V88Z" fill="#212121"/>
<path d="M28 80H32V84H28V80Z" fill="#212121"/>
<path d="M24 80H28V84H24V80Z" fill="#212121"/>
<path d="M24 104H28V108H24V104Z" fill="#212121"/>
<path d="M20 80H24V84H20V80Z" fill="#212121"/>
<path d="M20 104H24V108H20V104Z" fill="#212121"/>
<path d="M16 104H20V108H16V104Z" fill="#212121"/>
<path d="M32 88H36V92H32V88Z" fill="#212121"/>
<path d="M32 80H36V84H32V80Z" fill="#212121"/>
<path d="M40 108H44V112H40V108Z" fill="#212121"/>
<path d="M44 108H48V112H44V108Z" fill="#212121"/>
<path d="M48 108H52V112H48V108Z" fill="#212121"/>
<path d="M52 108H56V112H52V108Z" fill="#212121"/>
<path d="M56 108H60V112H56V108Z" fill="#212121"/>
<path d="M60 108H64V112H60V108Z" fill="#212121"/>
<path d="M64 108H68V112H64V108Z" fill="#212121"/>
<path d="M68 108H72V112H68V108Z" fill="#212121"/>
<path d="M72 108H76V112H72V108Z" fill="#212121"/>
<path d="M76 108H80V112H76V108Z" fill="#212121"/>
<path d="M76 88H80V92H76V88Z" fill="#212121"/>
<path d="M76 80H80V84H76V80Z" fill="#212121"/>
<path d="M76 76H80V80H76V76Z" fill="#212121"/>
<path d="M76 72H80V76H76V72Z" fill="#212121"/>
<path d="M80 68H84V72H80V68Z" fill="#212121"/>
<path d="M84 64H88V68H84V64Z" fill="#212121"/>
<path d="M84 60H88V64H84V60Z" fill="#212121"/>
<path d="M84 56H88V60H84V56Z" fill="#212121"/>
<path d="M84 52H88V56H84V52Z" fill="#212121"/>
<path d="M84 48H88V52H84V48Z" fill="#212121"/>
<path d="M80 44H84V48H80V44Z" fill="#212121"/>
<path d="M80 48H84V52H80V48Z" fill="#212121"/>
<path d="M80 52H84V56H80V52Z" fill="#212121"/>
<path d="M80 56H84V60H80V56Z" fill="#212121"/>
<path d="M80 60H84V64H80V60Z" fill="#212121"/>
<path d="M80 64H84V68H80V64Z" fill="#212121"/>
<path d="M80 40H84V44H80V40Z" fill="#212121"/>
<path d="M80 36H84V40H80V36Z" fill="#212121"/>
<path d="M80 108H84V112H80V108Z" fill="#212121"/>
<path d="M80 88H84V92H80V88Z" fill="#212121"/>
<path d="M80 80H84V84H80V80Z" fill="#212121"/>
<path d="M80 76H84V80H80V76Z" fill="#212121"/>
<path d="M80 72H84V76H80V72Z" fill="#212121"/>
<path d="M84 68H88V72H84V68Z" fill="#212121"/>
<path d="M76 44H80V48H76V44Z" fill="#212121"/>
<path d="M76 48H80V52H76V48Z" fill="#212121"/>
<path d="M76 52H80V56H76V52Z" fill="#212121"/>
<path d="M76 56H80V60H76V56Z" fill="#212121"/>
<path d="M76 60H80V64H76V60Z" fill="#212121"/>
<path d="M76 64H80V68H76V64Z" fill="#212121"/>
<path d="M76 68H80V72H76V68Z" fill="#212121"/>
<path d="M76 40H80V44H76V40Z" fill="#212121"/>
<path d="M76 36H80V40H76V36Z" fill="#212121"/>
<path d="M84 108H88V112H84V108Z" fill="#212121"/>
<path d="M84 88H88V92H84V88Z" fill="#212121"/>
<path d="M84 80H88V84H84V80Z" fill="#212121"/>
<path d="M84 76H88V80H84V76Z" fill="#212121"/>
<path d="M84 72H88V76H84V72Z" fill="#212121"/>
<path d="M84 44H88V48H84V44Z" fill="#212121"/>
<path d="M84 40H88V44H84V40Z" fill="#212121"/>
<path d="M84 36H88V40H84V36Z" fill="#212121"/>
<path d="M88 108H92V112H88V108Z" fill="#212121"/>
<path d="M92 108H96V112H92V108Z" fill="#212121"/>
<path d="M96 108H100V112H96V108Z" fill="#212121"/>
<path d="M100 108H104V112H100V108Z" fill="#212121"/>
<path d="M104 108H108V112H104V108Z" fill="#212121"/>
<path d="M108 108H112V112H108V108Z" fill="#212121"/>
<path d="M112 108H116V112H112V108Z" fill="#212121"/>
<path d="M116 108H120V112H116V108Z" fill="#212121"/>
<path d="M120 108H124V112H120V108Z" fill="#212121"/>
<path d="M124 108H128V112H124V108Z" fill="#212121"/>
<path d="M124 88H128V92H124V88Z" fill="#212121"/>
<path d="M120 88H124V92H120V88Z" fill="#212121"/>
<path d="M116 88H120V92H116V88Z" fill="#212121"/>
<path d="M124 68H128V72H124V68Z" fill="#212121"/>
<path d="M120 68H124V72H120V68Z" fill="#212121"/>
<path d="M124 48H128V52H124V48Z" fill="#212121"/>
<path d="M120 48H124V52H120V48Z" fill="#212121"/>
<path d="M124 28H128V32H124V28Z" fill="#212121"/>
<path d="M124 8H128V12H124V8Z" fill="#212121"/>
<path d="M36 112H40V116H36V112Z" fill="#212121"/>
<path d="M32 112H36V116H32V112Z" fill="#212121"/>
<path d="M28 112H32V116H28V112Z" fill="#212121"/>
<path d="M28 92H32V96H28V92Z" fill="#212121"/>
<path d="M28 84H32V88H28V84Z" fill="#212121"/>
<path d="M32 92H36V96H32V92Z" fill="#212121"/>
<path d="M32 84H36V88H32V84Z" fill="#212121"/>
<path d="M40 112H44V116H40V112Z" fill="#212121"/>
<path d="M44 112H48V116H44V112Z" fill="#212121"/>
<path d="M48 112H52V116H48V112Z" fill="#212121"/>
<path d="M52 112H56V116H52V112Z" fill="#212121"/>
<path d="M56 112H60V116H56V112Z" fill="#212121"/>
<path d="M60 112H64V116H60V112Z" fill="#212121"/>
<path d="M64 112H68V116H64V112Z" fill="#212121"/>
<path d="M68 112H72V116H68V112Z" fill="#212121"/>
<path d="M72 112H76V116H72V112Z" fill="#212121"/>
<path d="M76 112H80V116H76V112Z" fill="#212121"/>
<path d="M76 92H80V96H76V92Z" fill="#212121"/>
<path d="M80 112H84V116H80V112Z" fill="#212121"/>
<path d="M80 92H84V96H80V92Z" fill="#212121"/>
<path d="M84 112H88V116H84V112Z" fill="#212121"/>
<path d="M84 92H88V96H84V92Z" fill="#212121"/>
<path d="M88 112H92V116H88V112Z" fill="#212121"/>
<path d="M92 112H96V116H92V112Z" fill="#212121"/>
<path d="M96 112H100V116H96V112Z" fill="#212121"/>
<path d="M100 112H104V116H100V112Z" fill="#212121"/>
<path d="M104 112H108V116H104V112Z" fill="#212121"/>
<path d="M108 112H112V116H108V112Z" fill="#212121"/>
<path d="M112 112H116V116H112V112Z" fill="#212121"/>
<path d="M116 112H120V116H116V112Z" fill="#212121"/>
<path d="M120 112H124V116H120V112Z" fill="#212121"/>
<path d="M124 112H128V116H124V112Z" fill="#212121"/>
<path d="M124 92H128V96H124V92Z" fill="#212121"/>
<path d="M120 92H124V96H120V92Z" fill="#212121"/>
<path d="M116 92H120V96H116V92Z" fill="#212121"/>
<path d="M124 72H128V76H124V72Z" fill="#212121"/>
<path d="M120 72H124V76H120V72Z" fill="#212121"/>
<path d="M124 52H128V56H124V52Z" fill="#212121"/>
<path d="M120 52H124V56H120V52Z" fill="#212121"/>
<path d="M124 32H128V36H124V32Z" fill="#212121"/>
<path d="M124 12H128V16H124V12Z" fill="#212121"/>
<path d="M36 116H40V120H36V116Z" fill="#212121"/>
<path d="M32 116H36V120H32V116Z" fill="#212121"/>
<path d="M28 116H32V120H28V116Z" fill="#212121"/>
<path d="M28 96H32V100H28V96Z" fill="#212121"/>
<path d="M32 96H36V100H32V96Z" fill="#212121"/>
<path d="M40 116H44V120H40V116Z" fill="#212121"/>
<path d="M44 116H48V120H44V116Z" fill="#212121"/>
<path d="M48 116H52V120H48V116Z" fill="#212121"/>
<path d="M52 116H56V120H52V116Z" fill="#212121"/>
<path d="M56 116H60V120H56V116Z" fill="#212121"/>
<path d="M60 116H64V120H60V116Z" fill="#212121"/>
<path d="M64 116H68V120H64V116Z" fill="#212121"/>
<path d="M68 116H72V120H68V116Z" fill="#212121"/>
<path d="M72 116H76V120H72V116Z" fill="#212121"/>
<path d="M76 116H80V120H76V116Z" fill="#212121"/>
<path d="M76 96H80V100H76V96Z" fill="#212121"/>
<path d="M80 116H84V120H80V116Z" fill="#212121"/>
<path d="M80 96H84V100H80V96Z" fill="#212121"/>
<path d="M84 116H88V120H84V116Z" fill="#212121"/>
<path d="M84 96H88V100H84V96Z" fill="#212121"/>
<path d="M88 116H92V120H88V116Z" fill="#212121"/>
<path d="M92 116H96V120H92V116Z" fill="#212121"/>
<path d="M96 116H100V120H96V116Z" fill="#212121"/>
<path d="M100 116H104V120H100V116Z" fill="#212121"/>
<path d="M104 116H108V120H104V116Z" fill="#212121"/>
<path d="M108 116H112V120H108V116Z" fill="#212121"/>
<path d="M112 116H116V120H112V116Z" fill="#212121"/>
<path d="M116 116H120V120H116V116Z" fill="#212121"/>
<path d="M120 116H124V120H120V116Z" fill="#212121"/>
<path d="M124 116H128V120H124V116Z" fill="#212121"/>
<path d="M124 96H128V100H124V96Z" fill="#212121"/>
<path d="M120 96H124V100H120V96Z" fill="#212121"/>
<path d="M116 96H120V100H116V96Z" fill="#212121"/>
<path d="M112 96H116V100H112V96Z" fill="#212121"/>
<path d="M124 76H128V80H124V76Z" fill="#212121"/>
<path d="M120 76H124V80H120V76Z" fill="#212121"/>
<path d="M124 56H128V60H124V56Z" fill="#212121"/>
<path d="M120 56H124V60H120V56Z" fill="#212121"/>
<path d="M124 36H128V40H124V36Z" fill="#212121"/>
<path d="M124 16H128V20H124V16Z" fill="#212121"/>
<path d="M36 120H40V124H36V120Z" fill="#212121"/>
<path d="M32 120H36V124H32V120Z" fill="#212121"/>
<path d="M28 120H32V124H28V120Z" fill="#212121"/>
<path d="M28 100H32V104H28V100Z" fill="#212121"/>
<path d="M32 100H36V104H32V100Z" fill="#212121"/>
<path d="M40 120H44V124H40V120Z" fill="#212121"/>
<path d="M44 120H48V124H44V120Z" fill="#212121"/>
<path d="M48 120H52V124H48V120Z" fill="#212121"/>
<path d="M52 120H56V124H52V120Z" fill="#212121"/>
<path d="M56 120H60V124H56V120Z" fill="#212121"/>
<path d="M60 120H64V124H60V120Z" fill="#212121"/>
<path d="M64 120H68V124H64V120Z" fill="#212121"/>
<path d="M68 120H72V124H68V120Z" fill="#212121"/>
<path d="M72 120H76V124H72V120Z" fill="#212121"/>
<path d="M76 120H80V124H76V120Z" fill="#212121"/>
<path d="M80 120H84V124H80V120Z" fill="#212121"/>
<path d="M84 120H88V124H84V120Z" fill="#212121"/>
<path d="M88 120H92V124H88V120Z" fill="#212121"/>
<path d="M92 120H96V124H92V120Z" fill="#212121"/>
<path d="M96 120H100V124H96V120Z" fill="#212121"/>
<path d="M100 120H104V124H100V120Z" fill="#212121"/>
<path d="M104 120H108V124H104V120Z" fill="#212121"/>
<path d="M108 120H112V124H108V120Z" fill="#212121"/>
<path d="M112 120H116V124H112V120Z" fill="#212121"/>
<path d="M116 120H120V124H116V120Z" fill="#212121"/>
<path d="M120 120H124V124H120V120Z" fill="#212121"/>
<path d="M124 120H128V124H124V120Z" fill="#212121"/>
<path d="M124 100H128V104H124V100Z" fill="#212121"/>
<path d="M120 100H124V104H120V100Z" fill="#212121"/>
<path d="M116 100H120V104H116V100Z" fill="#212121"/>
<path d="M112 100H116V104H112V100Z" fill="#212121"/>
<path d="M108 100H112V104H108V100Z" fill="#212121"/>
<path d="M124 80H128V84H124V80Z" fill="#212121"/>
<path d="M120 80H124V84H120V80Z" fill="#212121"/>
<path d="M124 60H128V64H124V60Z" fill="#212121"/>
<path d="M120 60H124V64H120V60Z" fill="#212121"/>
<path d="M124 40H128V44H124V40Z" fill="#212121"/>
<path d="M120 40H124V44H120V40Z" fill="#212121"/>
<path d="M124 20H128V24H124V20Z" fill="#212121"/>
<path d="M124 0H128V4H124V0Z" fill="#212121"/>
<path d="M120 0H124V4H120V0Z" fill="#212121"/>
<path d="M116 0H120V4H116V0Z" fill="#212121"/>
<path d="M112 0H116V4H112V0Z" fill="#212121"/>
<path d="M108 0H112V4H108V0Z" fill="#212121"/>
<path d="M104 0H108V4H104V0Z" fill="#212121"/>
<path d="M100 0H104V4H100V0Z" fill="#212121"/>
<path d="M96 0H100V4H96V0Z" fill="#212121"/>
<path d="M92 0H96V4H92V0Z" fill="#212121"/>
<path d="M88 0H92V4H88V0Z" fill="#212121"/>
<path d="M84 0H88V4H84V0Z" fill="#212121"/>
<path d="M80 0H84V4H80V0Z" fill="#212121"/>
<path d="M76 0H80V4H76V0Z" fill="#212121"/>
<path d="M72 0H76V4H72V0Z" fill="#212121"/>
<path d="M68 0H72V4H68V0Z" fill="#212121"/>
<path d="M64 0H68V4H64V0Z" fill="#212121"/>
<path d="M60 0H64V4H60V0Z" fill="#212121"/>
<path d="M56 0H60V4H56V0Z" fill="#212121"/>
<path d="M52 0H56V4H52V0Z" fill="#212121"/>
<path d="M48 0H52V4H48V0Z" fill="#212121"/>
<path d="M44 0H48V4H44V0Z" fill="#212121"/>
<path d="M40 0H44V4H40V0Z" fill="#212121"/>
<path d="M120 4H124V8H120V4Z" fill="#212121"/>
<path d="M120 8H124V12H120V8Z" fill="#212121"/>
<path d="M120 12H124V16H120V12Z" fill="#212121"/>
<path d="M120 16H124V20H120V16Z" fill="#212121"/>
<path d="M120 20H124V24H120V20Z" fill="#212121"/>
<path d="M120 24H124V28H120V24Z" fill="#212121"/>
<path d="M120 28H124V32H120V28Z" fill="#212121"/>
<path d="M120 32H124V36H120V32Z" fill="#212121"/>
<path d="M120 36H124V40H120V36Z" fill="#212121"/>
<path d="M116 4H120V8H116V4Z" fill="#212121"/>
<path d="M116 8H120V12H116V8Z" fill="#212121"/>
<path d="M116 12H120V16H116V12Z" fill="#212121"/>
<path d="M116 16H120V20H116V16Z" fill="#212121"/>
<path d="M116 20H120V24H116V20Z" fill="#212121"/>
<path d="M116 24H120V28H116V24Z" fill="#212121"/>
<path d="M116 28H120V32H116V28Z" fill="#212121"/>
<path d="M116 32H120V36H116V32Z" fill="#212121"/>
<path d="M116 36H120V40H116V36Z" fill="#212121"/>
<path d="M112 4H116V8H112V4Z" fill="#212121"/>
<path d="M112 8H116V12H112V8Z" fill="#212121"/>
<path d="M112 12H116V16H112V12Z" fill="#212121"/>
<path d="M112 16H116V20H112V16Z" fill="#212121"/>
<path d="M112 20H116V24H112V20Z" fill="#212121"/>
<path d="M112 24H116V28H112V24Z" fill="#212121"/>
<path d="M112 28H116V32H112V28Z" fill="#212121"/>
<path d="M108 4H112V8H108V4Z" fill="#212121"/>
<path d="M108 8H112V12H108V8Z" fill="#212121"/>
<path d="M108 12H112V16H108V12Z" fill="#212121"/>
<path d="M108 16H112V20H108V16Z" fill="#212121"/>
<path d="M108 20H112V24H108V20Z" fill="#212121"/>
<path d="M108 24H112V28H108V24Z" fill="#212121"/>
<path d="M104 4H108V8H104V4Z" fill="#212121"/>
<path d="M104 8H108V12H104V8Z" fill="#212121"/>
<path d="M104 12H108V16H104V12Z" fill="#212121"/>
<path d="M104 16H108V20H104V16Z" fill="#212121"/>
<path d="M104 20H108V24H104V20Z" fill="#212121"/>
<path d="M100 4H104V8H100V4Z" fill="#212121"/>
<path d="M100 8H104V12H100V8Z" fill="#212121"/>
<path d="M100 12H104V16H100V12Z" fill="#212121"/>
<path d="M100 16H104V20H100V16Z" fill="#212121"/>
<path d="M100 20H104V24H100V20Z" fill="#212121"/>
<path d="M96 4H100V8H96V4Z" fill="#212121"/>
<path d="M96 8H100V12H96V8Z" fill="#212121"/>
<path d="M96 12H100V16H96V12Z" fill="#212121"/>
<path d="M96 16H100V20H96V16Z" fill="#212121"/>
<path d="M92 4H96V8H92V4Z" fill="#212121"/>
<path d="M92 8H96V12H92V8Z" fill="#212121"/>
<path d="M92 12H96V16H92V12Z" fill="#212121"/>
<path d="M92 16H96V20H92V16Z" fill="#212121"/>
<path d="M88 4H92V8H88V4Z" fill="#212121"/>
<path d="M88 8H92V12H88V8Z" fill="#212121"/>
<path d="M88 12H92V16H88V12Z" fill="#212121"/>
<path d="M88 16H92V20H88V16Z" fill="#212121"/>
<path d="M84 4H88V8H84V4Z" fill="#212121"/>
<path d="M84 8H88V12H84V8Z" fill="#212121"/>
<path d="M84 12H88V16H84V12Z" fill="#212121"/>
<path d="M84 16H88V20H84V16Z" fill="#212121"/>
<path d="M80 4H84V8H80V4Z" fill="#212121"/>
<path d="M80 8H84V12H80V8Z" fill="#212121"/>
<path d="M80 12H84V16H80V12Z" fill="#212121"/>
<path d="M80 16H84V20H80V16Z" fill="#212121"/>
<path d="M76 4H80V8H76V4Z" fill="#212121"/>
<path d="M76 8H80V12H76V8Z" fill="#212121"/>
<path d="M76 12H80V16H76V12Z" fill="#212121"/>
<path d="M76 16H80V20H76V16Z" fill="#212121"/>
<path d="M72 4H76V8H72V4Z" fill="#212121"/>
<path d="M72 8H76V12H72V8Z" fill="#212121"/>
<path d="M72 12H76V16H72V12Z" fill="#212121"/>
<path d="M72 16H76V20H72V16Z" fill="#212121"/>
<path d="M68 4H72V8H68V4Z" fill="#212121"/>
<path d="M68 8H72V12H68V8Z" fill="#212121"/>
<path d="M68 12H72V16H68V12Z" fill="#212121"/>
<path d="M68 16H72V20H68V16Z" fill="#212121"/>
<path d="M64 4H68V8H64V4Z" fill="#212121"/>
<path d="M64 8H68V12H64V8Z" fill="#212121"/>
<path d="M64 12H68V16H64V12Z" fill="#212121"/>
<path d="M64 16H68V20H64V16Z" fill="#212121"/>
<path d="M60 4H64V8H60V4Z" fill="#212121"/>
<path d="M60 8H64V12H60V8Z" fill="#212121"/>
<path d="M60 12H64V16H60V12Z" fill="#212121"/>
<path d="M60 16H64V20H60V16Z" fill="#212121"/>
<path d="M56 4H60V8H56V4Z" fill="#212121"/>
<path d="M56 8H60V12H56V8Z" fill="#212121"/>
<path d="M56 12H60V16H56V12Z" fill="#212121"/>
<path d="M56 16H60V20H56V16Z" fill="#212121"/>
<path d="M52 4H56V8H52V4Z" fill="#212121"/>
<path d="M52 8H56V12H52V8Z" fill="#212121"/>
<path d="M52 12H56V16H52V12Z" fill="#212121"/>
<path d="M52 16H56V20H52V16Z" fill="#212121"/>
<path d="M48 4H52V8H48V4Z" fill="#212121"/>
<path d="M48 8H52V12H48V8Z" fill="#212121"/>
<path d="M48 12H52V16H48V12Z" fill="#212121"/>
<path d="M48 16H52V20H48V16Z" fill="#212121"/>
<path d="M44 4H48V8H44V4Z" fill="#212121"/>
<path d="M44 8H48V12H44V8Z" fill="#212121"/>
<path d="M44 12H48V16H44V12Z" fill="#212121"/>
<path d="M44 16H48V20H44V16Z" fill="#212121"/>
<path d="M40 4H44V8H40V4Z" fill="#212121"/>
<path d="M40 8H44V12H40V8Z" fill="#212121"/>
<path d="M40 12H44V16H40V12Z" fill="#212121"/>
<path d="M40 16H44V20H40V16Z" fill="#212121"/>
<path d="M32 0H36V4H32V0Z" fill="#212121"/>
<path d="M28 0H32V4H28V0Z" fill="#212121"/>
<path d="M24 0H28V4H24V0Z" fill="#212121"/>
<path d="M20 0H24V4H20V0Z" fill="#212121"/>
<path d="M16 0H20V4H16V0Z" fill="#212121"/>
<path d="M12 0H16V4H12V0Z" fill="#212121"/>
<path d="M8 0H12V4H8V0Z" fill="#212121"/>
<path d="M4 0H8V4H4V0Z" fill="#212121"/>
<path d="M36 124H40V128H36V124Z" fill="#212121"/>
<path d="M32 124H36V128H32V124Z" fill="#212121"/>
<path d="M28 124H32V128H28V124Z" fill="#212121"/>
<path d="M24 124H28V128H24V124Z" fill="#212121"/>
<path d="M20 124H24V128H20V124Z" fill="#212121"/>
<path d="M16 124H20V128H16V124Z" fill="#212121"/>
<path d="M12 124H16V128H12V124Z" fill="#212121"/>
<path d="M8 124H12V128H8V124Z" fill="#212121"/>
<path d="M4 124H8V128H4V124Z" fill="#212121"/>
<path d="M28 104H32V108H28V104Z" fill="#212121"/>
<path d="M32 104H36V108H32V104Z" fill="#212121"/>
<path d="M40 124H44V128H40V124Z" fill="#212121"/>
<path d="M44 124H48V128H44V124Z" fill="#212121"/>
<path d="M48 124H52V128H48V124Z" fill="#212121"/>
<path d="M52 124H56V128H52V124Z" fill="#212121"/>
<path d="M56 124H60V128H56V124Z" fill="#212121"/>
<path d="M60 124H64V128H60V124Z" fill="#212121"/>
<path d="M64 124H68V128H64V124Z" fill="#212121"/>
<path d="M68 124H72V128H68V124Z" fill="#212121"/>
<path d="M72 124H76V128H72V124Z" fill="#212121"/>
<path d="M76 124H80V128H76V124Z" fill="#212121"/>
<path d="M80 124H84V128H80V124Z" fill="#212121"/>
<path d="M84 124H88V128H84V124Z" fill="#212121"/>
<path d="M88 124H92V128H88V124Z" fill="#212121"/>
<path d="M92 124H96V128H92V124Z" fill="#212121"/>
<path d="M96 124H100V128H96V124Z" fill="#212121"/>
<path d="M100 124H104V128H100V124Z" fill="#212121"/>
<path d="M104 124H108V128H104V124Z" fill="#212121"/>
<path d="M108 124H112V128H108V124Z" fill="#212121"/>
<path d="M112 124H116V128H112V124Z" fill="#212121"/>
<path d="M116 124H120V128H116V124Z" fill="#212121"/>
<path d="M120 124H124V128H120V124Z" fill="#212121"/>
<path d="M124 124H128V128H124V124Z" fill="#212121"/>
<path d="M124 104H128V108H124V104Z" fill="#212121"/>
<path d="M120 104H124V108H120V104Z" fill="#212121"/>
<path d="M116 104H120V108H116V104Z" fill="#212121"/>
<path d="M112 104H116V108H112V104Z" fill="#212121"/>
<path d="M108 104H112V108H108V104Z" fill="#212121"/>
<path d="M104 104H108V108H104V104Z" fill="#212121"/>
<path d="M100 104H104V108H100V104Z" fill="#212121"/>
<path d="M124 84H128V88H124V84Z" fill="#212121"/>
<path d="M120 84H124V88H120V84Z" fill="#212121"/>
<path d="M124 64H128V68H124V64Z" fill="#212121"/>
<path d="M120 64H124V68H120V64Z" fill="#212121"/>
<path d="M124 44H128V48H124V44Z" fill="#212121"/>
<path d="M120 44H124V48H120V44Z" fill="#212121"/>
<path d="M124 24H128V28H124V24Z" fill="#212121"/>
<path d="M124 4H128V8H124V4Z" fill="#212121"/>
</svg>
