<svg width="128" height="128" viewBox="0 0 128 128" fill="none" xmlns="http://www.w3.org/2000/svg">
<path d="M2 100H6V104H2V100Z" fill="#212121"/>
<path d="M2 96H6V100H2V96Z" fill="#212121"/>
<path d="M2 92H6V96H2V92Z" fill="#212121"/>
<path d="M2 88H6V92H2V88Z" fill="#212121"/>
<path d="M2 84H6V88H2V84Z" fill="#212121"/>
<path d="M2 80H6V84H2V80Z" fill="#212121"/>
<path d="M2 76H6V80H2V76Z" fill="#212121"/>
<path d="M6 76H10V80H6V76Z" fill="#212121"/>
<path d="M6 80H10V84H6V80Z" fill="#212121"/>
<path d="M6 84H10V88H6V84Z" fill="#212121"/>
<path d="M6 88H10V92H6V88Z" fill="#212121"/>
<path d="M6 92H10V96H6V92Z" fill="#212121"/>
<path d="M6 96H10V100H6V96Z" fill="#212121"/>
<path d="M6 100H10V104H6V100Z" fill="#212121"/>
<path d="M6 104H10V108H6V104Z" fill="#212121"/>
<path d="M6 108H10V112H6V108Z" fill="#212121"/>
<path d="M10 108H14V112H10V108Z" fill="#212121"/>
<path d="M10 104H14V108H10V104Z" fill="#212121"/>
<path d="M10 100H14V104H10V100Z" fill="#212121"/>
<path d="M10 96H14V100H10V96Z" fill="#212121"/>
<path d="M10 92H14V96H10V92Z" fill="#212121"/>
<path d="M10 88H14V92H10V88Z" fill="#212121"/>
<path d="M10 84H14V88H10V84Z" fill="#212121"/>
<path d="M10 80H14V84H10V80Z" fill="#212121"/>
<path d="M10 76H14V80H10V76Z" fill="#212121"/>
<path d="M10 72H14V76H10V72Z" fill="#212121"/>
<path d="M6 72H10V76H6V72Z" fill="#212121"/>
<path d="M10 68H14V72H10V68Z" fill="#212121"/>
<path d="M6 68H10V72H6V68Z" fill="#212121"/>
<path d="M10 64H14V68H10V64Z" fill="#212121"/>
<path d="M10 60H14V64H10V60Z" fill="#212121"/>
<path d="M14 60H18V64H14V60Z" fill="#212121"/>
<path d="M14 64H18V68H14V64Z" fill="#212121"/>
<path d="M14 68H18V72H14V68Z" fill="#212121"/>
<path d="M14 72H18V76H14V72Z" fill="#212121"/>
<path d="M14 76H18V80H14V76Z" fill="#212121"/>
<path d="M14 80H18V84H14V80Z" fill="#212121"/>
<path d="M18 80H22V84H18V80Z" fill="#212121"/>
<path d="M18 84H22V88H18V84Z" fill="#212121"/>
<path d="M18 88H22V92H18V88Z" fill="#212121"/>
<path d="M18 92H22V96H18V92Z" fill="#212121"/>
<path d="M18 96H22V100H18V96Z" fill="#212121"/>
<path d="M22 80H26V84H22V80Z" fill="#212121"/>
<path d="M22 84H26V88H22V84Z" fill="#212121"/>
<path d="M22 88H26V92H22V88Z" fill="#212121"/>
<path d="M22 92H26V96H22V92Z" fill="#212121"/>
<path d="M22 96H26V100H22V96Z" fill="#212121"/>
<path d="M22 100H26V104H22V100Z" fill="#212121"/>
<path d="M22 104H26V108H22V104Z" fill="#212121"/>
<path d="M18 104H22V108H18V104Z" fill="#212121"/>
<path d="M14 104H18V108H14V104Z" fill="#212121"/>
<path d="M14 100H18V104H14V100Z" fill="#212121"/>
<path d="M14 96H18V100H14V96Z" fill="#212121"/>
<path d="M26 80H30V84H26V80Z" fill="#212121"/>
<path d="M26 84H30V88H26V84Z" fill="#212121"/>
<path d="M26 88H30V92H26V88Z" fill="#212121"/>
<path d="M26 96H30V100H26V96Z" fill="#212121"/>
<path d="M26 92H30V96H26V92Z" fill="#212121"/>
<path d="M26 100H30V104H26V100Z" fill="#212121"/>
<path d="M26 104H30V108H26V104Z" fill="#212121"/>
<path d="M30 80H34V84H30V80Z" fill="#212121"/>
<path d="M30 84H34V88H30V84Z" fill="#212121"/>
<path d="M30 96H34V100H30V96Z" fill="#212121"/>
<path d="M30 88H34V92H30V88Z" fill="#212121"/>
<path d="M30 92H34V96H30V92Z" fill="#212121"/>
<path d="M30 100H34V104H30V100Z" fill="#212121"/>
<path d="M30 104H34V108H30V104Z" fill="#212121"/>
<path d="M34 80H38V84H34V80Z" fill="#212121"/>
<path d="M34 96H38V100H34V96Z" fill="#212121"/>
<path d="M34 84H38V88H34V84Z" fill="#212121"/>
<path d="M34 88H38V92H34V88Z" fill="#212121"/>
<path d="M34 92H38V96H34V92Z" fill="#212121"/>
<path d="M34 100H38V104H34V100Z" fill="#212121"/>
<path d="M34 104H38V108H34V104Z" fill="#212121"/>
<path d="M38 96H42V100H38V96Z" fill="#212121"/>
<path d="M38 80H42V84H38V80Z" fill="#212121"/>
<path d="M38 84H42V88H38V84Z" fill="#212121"/>
<path d="M38 88H42V92H38V88Z" fill="#212121"/>
<path d="M38 92H42V96H38V92Z" fill="#212121"/>
<path d="M42 96H46V100H42V96Z" fill="#212121"/>
<path d="M38 100H42V104H38V100Z" fill="#212121"/>
<path d="M38 104H42V108H38V104Z" fill="#212121"/>
<path d="M42 80H46V84H42V80Z" fill="#212121"/>
<path d="M42 84H46V88H42V84Z" fill="#212121"/>
<path d="M42 88H46V92H42V88Z" fill="#212121"/>
<path d="M46 96H50V100H46V96Z" fill="#212121"/>
<path d="M42 92H46V96H42V92Z" fill="#212121"/>
<path d="M42 100H46V104H42V100Z" fill="#212121"/>
<path d="M42 104H46V108H42V104Z" fill="#212121"/>
<path d="M46 80H50V84H46V80Z" fill="#212121"/>
<path d="M46 84H50V88H46V84Z" fill="#212121"/>
<path d="M50 96H54V100H50V96Z" fill="#212121"/>
<path d="M46 88H50V92H46V88Z" fill="#212121"/>
<path d="M46 92H50V96H46V92Z" fill="#212121"/>
<path d="M46 100H50V104H46V100Z" fill="#212121"/>
<path d="M46 104H50V108H46V104Z" fill="#212121"/>
<path d="M50 80H54V84H50V80Z" fill="#212121"/>
<path d="M54 96H58V100H54V96Z" fill="#212121"/>
<path d="M50 84H54V88H50V84Z" fill="#212121"/>
<path d="M50 88H54V92H50V88Z" fill="#212121"/>
<path d="M50 92H54V96H50V92Z" fill="#212121"/>
<path d="M50 100H54V104H50V100Z" fill="#212121"/>
<path d="M50 104H54V108H50V104Z" fill="#212121"/>
<path d="M58 96H62V100H58V96Z" fill="#212121"/>
<path d="M54 80H58V84H54V80Z" fill="#212121"/>
<path d="M54 84H58V88H54V84Z" fill="#212121"/>
<path d="M54 88H58V92H54V88Z" fill="#212121"/>
<path d="M54 92H58V96H54V92Z" fill="#212121"/>
<path d="M62 96H66V100H62V96Z" fill="#212121"/>
<path d="M54 100H58V104H54V100Z" fill="#212121"/>
<path d="M54 104H58V108H54V104Z" fill="#212121"/>
<path d="M58 80H62V84H58V80Z" fill="#212121"/>
<path d="M58 84H62V88H58V84Z" fill="#212121"/>
<path d="M58 88H62V92H58V88Z" fill="#212121"/>
<path d="M66 96H70V100H66V96Z" fill="#212121"/>
<path d="M58 92H62V96H58V92Z" fill="#212121"/>
<path d="M58 100H62V104H58V100Z" fill="#212121"/>
<path d="M58 104H62V108H58V104Z" fill="#212121"/>
<path d="M62 80H66V84H62V80Z" fill="#212121"/>
<path d="M62 84H66V88H62V84Z" fill="#212121"/>
<path d="M70 96H74V100H70V96Z" fill="#212121"/>
<path d="M62 88H66V92H62V88Z" fill="#212121"/>
<path d="M62 92H66V96H62V92Z" fill="#212121"/>
<path d="M62 100H66V104H62V100Z" fill="#212121"/>
<path d="M62 104H66V108H62V104Z" fill="#212121"/>
<path d="M66 80H70V84H66V80Z" fill="#212121"/>
<path d="M74 96H78V100H74V96Z" fill="#212121"/>
<path d="M66 84H70V88H66V84Z" fill="#212121"/>
<path d="M66 88H70V92H66V88Z" fill="#212121"/>
<path d="M66 92H70V96H66V92Z" fill="#212121"/>
<path d="M66 100H70V104H66V100Z" fill="#212121"/>
<path d="M66 104H70V108H66V104Z" fill="#212121"/>
<path d="M70 80H74V84H70V80Z" fill="#212121"/>
<path d="M70 84H74V88H70V84Z" fill="#212121"/>
<path d="M70 88H74V92H70V88Z" fill="#212121"/>
<path d="M70 92H74V96H70V92Z" fill="#212121"/>
<path d="M70 100H74V104H70V100Z" fill="#212121"/>
<path d="M70 104H74V108H70V104Z" fill="#212121"/>
<path d="M74 80H78V84H74V80Z" fill="#212121"/>
<path d="M74 84H78V88H74V84Z" fill="#212121"/>
<path d="M74 88H78V92H74V88Z" fill="#212121"/>
<path d="M74 92H78V96H74V92Z" fill="#212121"/>
<path d="M74 100H78V104H74V100Z" fill="#212121"/>
<path d="M70 108H74V112H70V108Z" fill="#212121"/>
<path d="M66 108H70V112H66V108Z" fill="#212121"/>
<path d="M66 112H70V116H66V112Z" fill="#212121"/>
<path d="M66 116H70V120H66V116Z" fill="#212121"/>
<path d="M62 108H66V112H62V108Z" fill="#212121"/>
<path d="M62 112H66V116H62V112Z" fill="#212121"/>
<path d="M62 116H66V120H62V116Z" fill="#212121"/>
<path d="M58 108H62V112H58V108Z" fill="#212121"/>
<path d="M58 112H62V116H58V112Z" fill="#212121"/>
<path d="M58 116H62V120H58V116Z" fill="#212121"/>
<path d="M58 120H62V124H58V120Z" fill="#212121"/>
<path d="M54 108H58V112H54V108Z" fill="#212121"/>
<path d="M54 112H58V116H54V112Z" fill="#212121"/>
<path d="M54 116H58V120H54V116Z" fill="#212121"/>
<path d="M54 120H58V124H54V120Z" fill="#212121"/>
<path d="M50 108H54V112H50V108Z" fill="#212121"/>
<path d="M50 112H54V116H50V112Z" fill="#212121"/>
<path d="M50 116H54V120H50V116Z" fill="#212121"/>
<path d="M50 120H54V124H50V120Z" fill="#212121"/>
<path d="M50 124H54V128H50V124Z" fill="#212121"/>
<path d="M46 108H50V112H46V108Z" fill="#212121"/>
<path d="M46 112H50V116H46V112Z" fill="#212121"/>
<path d="M46 116H50V120H46V116Z" fill="#212121"/>
<path d="M46 120H50V124H46V120Z" fill="#212121"/>
<path d="M46 124H50V128H46V124Z" fill="#212121"/>
<path d="M42 108H46V112H42V108Z" fill="#212121"/>
<path d="M42 112H46V116H42V112Z" fill="#212121"/>
<path d="M42 116H46V120H42V116Z" fill="#212121"/>
<path d="M42 120H46V124H42V120Z" fill="#212121"/>
<path d="M42 124H46V128H42V124Z" fill="#212121"/>
<path d="M38 108H42V112H38V108Z" fill="#212121"/>
<path d="M38 112H42V116H38V112Z" fill="#212121"/>
<path d="M38 116H42V120H38V116Z" fill="#212121"/>
<path d="M38 120H42V124H38V120Z" fill="#212121"/>
<path d="M38 124H42V128H38V124Z" fill="#212121"/>
<path d="M34 108H38V112H34V108Z" fill="#212121"/>
<path d="M34 112H38V116H34V112Z" fill="#212121"/>
<path d="M34 116H38V120H34V116Z" fill="#212121"/>
<path d="M34 120H38V124H34V120Z" fill="#212121"/>
<path d="M34 124H38V128H34V124Z" fill="#212121"/>
<path d="M30 108H34V112H30V108Z" fill="#212121"/>
<path d="M30 112H34V116H30V112Z" fill="#212121"/>
<path d="M26 112H30V116H26V112Z" fill="#212121"/>
<path d="M22 112H26V116H22V112Z" fill="#212121"/>
<path d="M22 108H26V112H22V108Z" fill="#212121"/>
<path d="M18 112H22V116H18V112Z" fill="#212121"/>
<path d="M18 108H22V112H18V108Z" fill="#212121"/>
<path d="M14 112H18V116H14V112Z" fill="#212121"/>
<path d="M14 108H18V112H14V108Z" fill="#212121"/>
<path d="M10 112H14V116H10V112Z" fill="#212121"/>
<path d="M30 116H34V120H30V116Z" fill="#212121"/>
<path d="M26 116H30V120H26V116Z" fill="#212121"/>
<path d="M22 116H26V120H22V116Z" fill="#212121"/>
<path d="M18 116H22V120H18V116Z" fill="#212121"/>
<path d="M14 116H18V120H14V116Z" fill="#212121"/>
<path d="M10 116H14V120H10V116Z" fill="#212121"/>
<path d="M30 120H34V124H30V120Z" fill="#212121"/>
<path d="M26 120H30V124H26V120Z" fill="#212121"/>
<path d="M22 120H26V124H22V120Z" fill="#212121"/>
<path d="M18 120H22V124H18V120Z" fill="#212121"/>
<path d="M30 124H34V128H30V124Z" fill="#212121"/>
<path d="M26 124H30V128H26V124Z" fill="#212121"/>
<path d="M74 76H78V80H74V76Z" fill="#212121"/>
<path d="M70 76H74V80H70V76Z" fill="#212121"/>
<path d="M66 76H70V80H66V76Z" fill="#212121"/>
<path d="M62 76H66V80H62V76Z" fill="#212121"/>
<path d="M58 76H62V80H58V76Z" fill="#212121"/>
<path d="M54 76H58V80H54V76Z" fill="#212121"/>
<path d="M50 76H54V80H50V76Z" fill="#212121"/>
<path d="M46 76H50V80H46V76Z" fill="#212121"/>
<path d="M42 76H46V80H42V76Z" fill="#212121"/>
<path d="M38 76H42V80H38V76Z" fill="#212121"/>
<path d="M34 76H38V80H34V76Z" fill="#212121"/>
<path d="M30 76H34V80H30V76Z" fill="#212121"/>
<path d="M26 76H30V80H26V76Z" fill="#212121"/>
<path d="M22 76H26V80H22V76Z" fill="#212121"/>
<path d="M70 72H74V76H70V72Z" fill="#212121"/>
<path d="M70 68H74V72H70V68Z" fill="#212121"/>
<path d="M18 60H22V64H18V60Z" fill="#212121"/>
<path d="M18 64H22V68H18V64Z" fill="#212121"/>
<path d="M18 68H22V72H18V68Z" fill="#212121"/>
<path d="M18 72H22V76H18V72Z" fill="#212121"/>
<path d="M22 60H26V64H22V60Z" fill="#212121"/>
<path d="M22 64H26V68H22V64Z" fill="#212121"/>
<path d="M22 68H26V72H22V68Z" fill="#212121"/>
<path d="M22 72H26V76H22V72Z" fill="#212121"/>
<path d="M26 60H30V64H26V60Z" fill="#212121"/>
<path d="M26 64H30V68H26V64Z" fill="#212121"/>
<path d="M26 68H30V72H26V68Z" fill="#212121"/>
<path d="M26 72H30V76H26V72Z" fill="#212121"/>
<path d="M30 60H34V64H30V60Z" fill="#212121"/>
<path d="M30 64H34V68H30V64Z" fill="#212121"/>
<path d="M30 68H34V72H30V68Z" fill="#212121"/>
<path d="M30 72H34V76H30V72Z" fill="#212121"/>
<path d="M34 60H38V64H34V60Z" fill="#212121"/>
<path d="M34 64H38V68H34V64Z" fill="#212121"/>
<path d="M34 68H38V72H34V68Z" fill="#212121"/>
<path d="M34 72H38V76H34V72Z" fill="#212121"/>
<path d="M38 60H42V64H38V60Z" fill="#212121"/>
<path d="M38 64H42V68H38V64Z" fill="#212121"/>
<path d="M38 68H42V72H38V68Z" fill="#212121"/>
<path d="M38 72H42V76H38V72Z" fill="#212121"/>
<path d="M42 60H46V64H42V60Z" fill="#212121"/>
<path d="M42 64H46V68H42V64Z" fill="#212121"/>
<path d="M42 68H46V72H42V68Z" fill="#212121"/>
<path d="M42 72H46V76H42V72Z" fill="#212121"/>
<path d="M46 60H50V64H46V60Z" fill="#212121"/>
<path d="M46 64H50V68H46V64Z" fill="#212121"/>
<path d="M46 68H50V72H46V68Z" fill="#212121"/>
<path d="M46 72H50V76H46V72Z" fill="#212121"/>
<path d="M50 60H54V64H50V60Z" fill="#212121"/>
<path d="M50 64H54V68H50V64Z" fill="#212121"/>
<path d="M50 68H54V72H50V68Z" fill="#212121"/>
<path d="M50 72H54V76H50V72Z" fill="#212121"/>
<path d="M54 60H58V64H54V60Z" fill="#212121"/>
<path d="M54 64H58V68H54V64Z" fill="#212121"/>
<path d="M54 68H58V72H54V68Z" fill="#212121"/>
<path d="M54 72H58V76H54V72Z" fill="#212121"/>
<path d="M58 60H62V64H58V60Z" fill="#212121"/>
<path d="M58 64H62V68H58V64Z" fill="#212121"/>
<path d="M58 68H62V72H58V68Z" fill="#212121"/>
<path d="M58 72H62V76H58V72Z" fill="#212121"/>
<path d="M58 56H62V60H58V56Z" fill="#212121"/>
<path d="M54 56H58V60H54V56Z" fill="#212121"/>
<path d="M50 56H54V60H50V56Z" fill="#212121"/>
<path d="M46 56H50V60H46V56Z" fill="#212121"/>
<path d="M42 56H46V60H42V56Z" fill="#212121"/>
<path d="M38 56H42V60H38V56Z" fill="#212121"/>
<path d="M34 56H38V60H34V56Z" fill="#212121"/>
<path d="M30 56H34V60H30V56Z" fill="#212121"/>
<path d="M26 56H30V60H26V56Z" fill="#212121"/>
<path d="M26 52H30V56H26V52Z" fill="#212121"/>
<path d="M26 48H30V52H26V48Z" fill="#212121"/>
<path d="M26 44H30V48H26V44Z" fill="#212121"/>
<path d="M30 52H34V56H30V52Z" fill="#212121"/>
<path d="M30 48H34V52H30V48Z" fill="#212121"/>
<path d="M30 44H34V48H30V44Z" fill="#212121"/>
<path d="M34 52H38V56H34V52Z" fill="#212121"/>
<path d="M34 48H38V52H34V48Z" fill="#212121"/>
<path d="M34 44H38V48H34V44Z" fill="#212121"/>
<path d="M38 52H42V56H38V52Z" fill="#212121"/>
<path d="M38 48H42V52H38V48Z" fill="#212121"/>
<path d="M38 44H42V48H38V44Z" fill="#212121"/>
<path d="M38 40H42V44H38V40Z" fill="#212121"/>
<path d="M38 36H42V40H38V36Z" fill="#212121"/>
<path d="M38 32H42V36H38V32Z" fill="#212121"/>
<path d="M42 28H46V32H42V28Z" fill="#212121"/>
<path d="M46 24H50V28H46V24Z" fill="#212121"/>
<path d="M50 24H54V28H50V24Z" fill="#212121"/>
<path d="M54 24H58V28H54V24Z" fill="#212121"/>
<path d="M58 24H62V28H58V24Z" fill="#212121"/>
<path d="M62 24H66V28H62V24Z" fill="#212121"/>
<path d="M66 28H70V32H66V28Z" fill="#212121"/>
<path d="M74 32H78V36H74V32Z" fill="#212121"/>
<path d="M78 32H82V36H78V32Z" fill="#212121"/>
<path d="M82 32H86V36H82V32Z" fill="#212121"/>
<path d="M82 40H86V44H82V40Z" fill="#212121"/>
<path d="M78 44H82V48H78V44Z" fill="#212121"/>
<path d="M74 48H78V52H74V48Z" fill="#212121"/>
<path d="M86 28H90V32H86V28Z" fill="#212121"/>
<path d="M90 28H94V32H90V28Z" fill="#212121"/>
<path d="M94 28H98V32H94V28Z" fill="#212121"/>
<path d="M94 40H98V44H94V40Z" fill="#212121"/>
<path d="M106 36H110V40H106V36Z" fill="#212121"/>
<path d="M106 24H110V28H106V24Z" fill="#212121"/>
<path d="M102 12H106V16H102V12Z" fill="#212121"/>
<path d="M90 16H94V20H90V16Z" fill="#212121"/>
<path d="M82 20H86V24H82V20Z" fill="#212121"/>
<path d="M74 16H78V20H74V16Z" fill="#212121"/>
<path d="M66 12H70V16H66V12Z" fill="#212121"/>
<path d="M86 8H90V12H86V8Z" fill="#212121"/>
<path d="M82 0H86V4H82V0Z" fill="#212121"/>
<path d="M106 8H110V12H106V8Z" fill="#212121"/>
<path d="M110 4H114V8H110V4Z" fill="#212121"/>
<path d="M114 0H118V4H114V0Z" fill="#212121"/>
<path d="M114 24H118V28H114V24Z" fill="#212121"/>
<path d="M122 24H126V28H122V24Z" fill="#212121"/>
<path d="M110 40H114V44H110V40Z" fill="#212121"/>
<path d="M114 44H118V48H114V44Z" fill="#212121"/>
<path d="M118 48H122V52H118V48Z" fill="#212121"/>
<path d="M94 48H98V52H94V48Z" fill="#212121"/>
<path d="M94 56H98V60H94V56Z" fill="#212121"/>
<path d="M70 28H74V32H70V28Z" fill="#212121"/>
<path d="M42 52H46V56H42V52Z" fill="#212121"/>
<path d="M42 48H46V52H42V48Z" fill="#212121"/>
<path d="M42 44H46V48H42V44Z" fill="#212121"/>
<path d="M46 52H50V56H46V52Z" fill="#212121"/>
<path d="M46 48H50V52H46V48Z" fill="#212121"/>
<path d="M46 44H50V48H46V44Z" fill="#212121"/>
<path d="M50 52H54V56H50V52Z" fill="#212121"/>
<path d="M50 48H54V52H50V48Z" fill="#212121"/>
<path d="M50 44H54V48H50V44Z" fill="#212121"/>
<path d="M22 56H26V60H22V56Z" fill="#212121"/>
<path d="M18 56H22V60H18V56Z" fill="#212121"/>
<path d="M62 60H66V64H62V60Z" fill="#212121"/>
<path d="M62 64H66V68H62V64Z" fill="#212121"/>
<path d="M62 68H66V72H62V68Z" fill="#212121"/>
<path d="M62 72H66V76H62V72Z" fill="#212121"/>
<path d="M66 60H70V64H66V60Z" fill="#212121"/>
<path d="M66 64H70V68H66V64Z" fill="#212121"/>
<path d="M66 68H70V72H66V68Z" fill="#212121"/>
<path d="M66 72H70V76H66V72Z" fill="#212121"/>
<rect x="18" y="76" width="4" height="4" fill="white"/>
<rect x="14" y="84" width="4" height="12" fill="white"/>
<rect x="18" y="100" width="4" height="4" fill="white"/>
<rect x="26" y="108" width="4" height="4" fill="white"/>
</svg>
