<svg width="30" height="30" viewBox="0 0 30 30" fill="none" xmlns="http://www.w3.org/2000/svg">
<rect width="1" height="1" transform="matrix(1 0 0 -1 10.5 11.5)" fill="black"/>
<rect width="1" height="1" transform="matrix(1 0 0 -1 11.5 11.5)" fill="black"/>
<rect width="1" height="1" transform="matrix(1 0 0 -1 12.5 11.5)" fill="black"/>
<rect width="1" height="1" transform="matrix(1 0 0 -1 13.5 11.5)" fill="black"/>
<rect width="1" height="1" transform="matrix(1 0 0 -1 14.5 11.5)" fill="black"/>
<rect width="1" height="1" transform="matrix(1 0 0 -1 15.5 11.5)" fill="black"/>
<rect width="1" height="1" transform="matrix(1 0 0 -1 16.5 11.5)" fill="black"/>
<rect width="1" height="1" transform="matrix(1 0 0 -1 17.5 11.5)" fill="black"/>
<rect width="1" height="1" transform="matrix(1 0 0 -1 18.5 11.5)" fill="black"/>
<rect width="1" height="1" transform="matrix(1 0 0 -1 19.5 11.5)" fill="black"/>
<rect width="1" height="1" transform="matrix(1 0 0 -1 20.5 11.5)" fill="black"/>
<rect width="1" height="1" transform="matrix(1 0 0 -1 21.5 12.5)" fill="black"/>
<rect width="1" height="1" transform="matrix(1 0 0 -1 21.5 13.5)" fill="black"/>
<rect width="1" height="1" transform="matrix(1 0 0 -1 20.5 14.5)" fill="black"/>
<rect width="1" height="1" transform="matrix(1 0 0 -1 19.5 14.5)" fill="black"/>
<rect width="1" height="1" transform="matrix(1 0 0 -1 18.5 14.5)" fill="black"/>
<rect width="1" height="1" transform="matrix(1 0 0 -1 18.5 15.5)" fill="black"/>
<rect width="1" height="1" transform="matrix(1 0 0 -1 18.5 16.5)" fill="black"/>
<rect width="1" height="1" transform="matrix(1 0 0 -1 17.5 17.5)" fill="black"/>
<rect width="1" height="1" transform="matrix(1 0 0 -1 17.5 16.5)" fill="black"/>
<rect width="1" height="1" transform="matrix(1 0 0 -1 17.5 15.5)" fill="black"/>
<rect width="1" height="1" transform="matrix(1 0 0 -1 17.5 14.5)" fill="black"/>
<rect width="1" height="1" transform="matrix(1 0 0 -1 17.5 13.5)" fill="black"/>
<rect width="1" height="1" transform="matrix(1 0 0 -1 17.5 12.5)" fill="black"/>
<rect width="1" height="1" transform="matrix(1 0 0 -1 17.5 18.5)" fill="black"/>
<rect width="1" height="1" transform="matrix(1 0 0 -1 17.5 19.5)" fill="black"/>
<rect width="1" height="1" transform="matrix(1 0 0 -1 18.5 18.5)" fill="black"/>
<rect width="1" height="1" transform="matrix(1 0 0 -1 18.5 19.5)" fill="black"/>
<rect width="1" height="1" transform="matrix(1 0 0 -1 19.5 18.5)" fill="black"/>
<rect width="1" height="1" transform="matrix(1 0 0 -1 19.5 19.5)" fill="black"/>
<rect width="1" height="1" transform="matrix(1 0 0 -1 20.5 18.5)" fill="black"/>
<rect width="1" height="1" transform="matrix(1 0 0 -1 20.5 19.5)" fill="black"/>
<rect width="1" height="1" transform="matrix(1 0 0 -1 21.5 18.5)" fill="black"/>
<rect width="1" height="1" transform="matrix(1 0 0 -1 21.5 19.5)" fill="black"/>
<rect width="1" height="1" transform="matrix(1 0 0 -1 22.5 18.5)" fill="black"/>
<rect width="1" height="1" transform="matrix(1 0 0 -1 10.5 12.5)" fill="black"/>
<rect width="1" height="1" transform="matrix(1 0 0 -1 10.5 13.5)" fill="black"/>
<rect width="1" height="1" transform="matrix(1 0 0 -1 10.5 14.5)" fill="black"/>
<rect width="1" height="1" transform="matrix(1 0 0 -1 10.5 15.5)" fill="black"/>
<rect width="1" height="1" transform="matrix(1 0 0 -1 10.5 16.5)" fill="black"/>
<rect width="1" height="1" transform="matrix(1 0 0 -1 11.5 17.5)" fill="black"/>
<rect width="1" height="1" transform="matrix(1 0 0 -1 11.5 16.5)" fill="black"/>
<rect width="1" height="1" transform="matrix(1 0 0 -1 11.5 15.5)" fill="black"/>
<rect width="1" height="1" transform="matrix(1 0 0 -1 11.5 14.5)" fill="black"/>
<rect width="1" height="1" transform="matrix(1 0 0 -1 11.5 13.5)" fill="black"/>
<rect width="1" height="1" transform="matrix(1 0 0 -1 11.5 12.5)" fill="black"/>
<rect width="1" height="1" transform="matrix(1 0 0 -1 11.5 18.5)" fill="black"/>
<rect width="1" height="1" transform="matrix(1 0 0 -1 11.5 19.5)" fill="black"/>
<rect width="1" height="1" transform="matrix(1 0 0 -1 10.5 18.5)" fill="black"/>
<rect width="1" height="1" transform="matrix(1 0 0 -1 10.5 19.5)" fill="black"/>
<rect width="1" height="1" transform="matrix(1 0 0 -1 9.5 18.5)" fill="black"/>
<rect width="1" height="1" transform="matrix(1 0 0 -1 9.5 19.5)" fill="black"/>
<rect width="1" height="1" transform="matrix(1 0 0 -1 8.5 18.5)" fill="black"/>
<rect width="1" height="1" transform="matrix(1 0 0 -1 8.5 19.5)" fill="black"/>
<rect width="1" height="1" transform="matrix(1 0 0 -1 7.5 18.5)" fill="black"/>
<rect width="1" height="1" transform="matrix(1 0 0 -1 7.5 19.5)" fill="black"/>
<rect width="1" height="1" transform="matrix(1 0 0 -1 6.5 18.5)" fill="black"/>
<rect width="1" height="1" transform="matrix(1 0 0 -1 12.5 17.5)" fill="black"/>
<rect width="1" height="1" transform="matrix(1 0 0 -1 12.5 16.5)" fill="black"/>
<rect width="1" height="1" transform="matrix(1 0 0 -1 12.5 15.5)" fill="black"/>
<rect width="1" height="1" transform="matrix(1 0 0 -1 12.5 14.5)" fill="black"/>
<rect width="1" height="1" transform="matrix(1 0 0 -1 12.5 13.5)" fill="black"/>
<rect width="1" height="1" transform="matrix(1 0 0 -1 12.5 12.5)" fill="black"/>
<rect width="1" height="1" transform="matrix(1 0 0 -1 12.5 18.5)" fill="black"/>
<rect width="1" height="1" transform="matrix(1 0 0 -1 12.5 19.5)" fill="black"/>
<rect width="1" height="1" transform="matrix(1 0 0 -1 13.5 17.5)" fill="black"/>
<rect width="1" height="1" transform="matrix(1 0 0 -1 13.5 16.5)" fill="black"/>
<rect width="1" height="1" transform="matrix(1 0 0 -1 13.5 15.5)" fill="black"/>
<rect width="1" height="1" transform="matrix(1 0 0 -1 13.5 14.5)" fill="black"/>
<rect width="1" height="1" transform="matrix(1 0 0 -1 13.5 13.5)" fill="black"/>
<rect width="1" height="1" transform="matrix(1 0 0 -1 13.5 12.5)" fill="black"/>
<rect width="1" height="1" transform="matrix(1 0 0 -1 13.5 18.5)" fill="black"/>
<rect width="1" height="1" transform="matrix(1 0 0 -1 13.5 19.5)" fill="black"/>
<rect width="1" height="1" transform="matrix(1 0 0 -1 14.5 17.5)" fill="black"/>
<rect width="1" height="1" transform="matrix(1 0 0 -1 14.5 16.5)" fill="black"/>
<rect width="1" height="1" transform="matrix(1 0 0 -1 14.5 15.5)" fill="black"/>
<rect width="1" height="1" transform="matrix(1 0 0 -1 14.5 14.5)" fill="black"/>
<rect width="1" height="1" transform="matrix(1 0 0 -1 14.5 13.5)" fill="black"/>
<rect width="1" height="1" transform="matrix(1 0 0 -1 14.5 12.5)" fill="black"/>
<rect width="1" height="1" transform="matrix(1 0 0 -1 14.5 18.5)" fill="black"/>
<rect width="1" height="1" transform="matrix(1 0 0 -1 14.5 19.5)" fill="black"/>
<rect width="1" height="1" transform="matrix(1 0 0 -1 15.5 17.5)" fill="black"/>
<rect width="1" height="1" transform="matrix(1 0 0 -1 15.5 16.5)" fill="black"/>
<rect width="1" height="1" transform="matrix(1 0 0 -1 15.5 15.5)" fill="black"/>
<rect width="1" height="1" transform="matrix(1 0 0 -1 15.5 14.5)" fill="black"/>
<rect width="1" height="1" transform="matrix(1 0 0 -1 15.5 13.5)" fill="black"/>
<rect width="1" height="1" transform="matrix(1 0 0 -1 15.5 12.5)" fill="black"/>
<rect width="1" height="1" transform="matrix(1 0 0 -1 15.5 18.5)" fill="black"/>
<rect width="1" height="1" transform="matrix(1 0 0 -1 15.5 19.5)" fill="black"/>
<rect width="1" height="1" transform="matrix(1 0 0 -1 16.5 17.5)" fill="black"/>
<rect width="1" height="1" transform="matrix(1 0 0 -1 16.5 16.5)" fill="black"/>
<rect width="1" height="1" transform="matrix(1 0 0 -1 16.5 15.5)" fill="black"/>
<rect width="1" height="1" transform="matrix(1 0 0 -1 16.5 14.5)" fill="black"/>
<rect width="1" height="1" transform="matrix(1 0 0 -1 16.5 13.5)" fill="black"/>
<rect width="1" height="1" transform="matrix(1 0 0 -1 16.5 12.5)" fill="black"/>
<rect width="1" height="1" transform="matrix(1 0 0 -1 16.5 18.5)" fill="black"/>
<rect width="1" height="1" transform="matrix(1 0 0 -1 16.5 19.5)" fill="black"/>
<rect width="1" height="1" transform="matrix(1 0 0 -1 18.5 13.5)" fill="black"/>
<rect width="1" height="1" transform="matrix(1 0 0 -1 18.5 12.5)" fill="black"/>
</svg>
