<svg width="34" height="34" viewBox="0 0 34 34" fill="none" xmlns="http://www.w3.org/2000/svg">
<rect x="5" y="8" width="24" height="24" fill="white"/>
<rect x="5" y="2" width="19" height="7" fill="white"/>
<rect x="23" y="3" width="2" height="5" fill="white"/>
<rect x="24" y="4" width="2" height="5" fill="white"/>
<rect x="25" y="5" width="2" height="5" fill="white"/>
<rect x="26" y="6" width="2" height="5" fill="white"/>
<rect x="22.5" y="1" width="1" height="1" fill="black"/>
<rect x="21.5" y="1" width="1" height="1" fill="black"/>
<rect x="20.5" y="1" width="1" height="1" fill="black"/>
<rect x="19.5" y="1" width="1" height="1" fill="black"/>
<rect x="18.5" y="1" width="1" height="1" fill="black"/>
<rect x="17.5" y="1" width="1" height="1" fill="black"/>
<rect x="16.5" y="1" width="1" height="1" fill="black"/>
<rect x="15.5" y="1" width="1" height="1" fill="black"/>
<rect x="14.5" y="1" width="1" height="1" fill="black"/>
<rect x="13.5" y="1" width="1" height="1" fill="black"/>
<rect x="12.5" y="1" width="1" height="1" fill="black"/>
<rect x="11.5" y="1" width="1" height="1" fill="black"/>
<rect x="10.5" y="1" width="1" height="1" fill="black"/>
<rect x="9.5" y="1" width="1" height="1" fill="black"/>
<rect x="8.5" y="1" width="1" height="1" fill="black"/>
<rect x="7.5" y="1" width="1" height="1" fill="black"/>
<rect x="6.5" y="1" width="1" height="1" fill="black"/>
<rect x="5.5" y="1" width="1" height="1" fill="black"/>
<rect x="4.5" y="1" width="1" height="1" fill="black"/>
<rect x="4.5" y="2" width="1" height="1" fill="black"/>
<rect x="4.5" y="3" width="1" height="1" fill="black"/>
<rect x="4.5" y="4" width="1" height="1" fill="black"/>
<rect x="4.5" y="5" width="1" height="1" fill="black"/>
<rect x="4.5" y="6" width="1" height="1" fill="black"/>
<rect x="4.5" y="7" width="1" height="1" fill="black"/>
<rect x="4.5" y="8" width="1" height="1" fill="black"/>
<rect x="4.5" y="9" width="1" height="1" fill="black"/>
<rect x="4.5" y="10" width="1" height="1" fill="black"/>
<rect x="4.5" y="11" width="1" height="1" fill="black"/>
<rect x="4.5" y="12" width="1" height="1" fill="black"/>
<rect x="4.5" y="13" width="1" height="1" fill="black"/>
<rect x="4.5" y="14" width="1" height="1" fill="black"/>
<rect x="4.5" y="15" width="1" height="1" fill="black"/>
<rect x="4.5" y="16" width="1" height="1" fill="black"/>
<rect x="4.5" y="17" width="1" height="1" fill="black"/>
<rect x="4.5" y="18" width="1" height="1" fill="black"/>
<rect x="4.5" y="19" width="1" height="1" fill="black"/>
<rect x="4.5" y="20" width="1" height="1" fill="black"/>
<rect x="23.5" y="2" width="1" height="1" fill="black"/>
<rect x="24.5" y="3" width="1" height="1" fill="black"/>
<rect x="25.5" y="4" width="1" height="1" fill="black"/>
<rect x="26.5" y="5" width="1" height="1" fill="black"/>
<rect x="27.5" y="6" width="1" height="1" fill="black"/>
<rect x="28.5" y="7" width="1" height="1" fill="black"/>
<rect x="28.5" y="8" width="1" height="1" fill="black"/>
<rect x="28.5" y="9" width="1" height="1" fill="black"/>
<rect x="28.5" y="10" width="1" height="1" fill="black"/>
<rect x="28.5" y="11" width="1" height="1" fill="black"/>
<rect x="28.5" y="12" width="1" height="1" fill="black"/>
<rect x="28.5" y="13" width="1" height="1" fill="black"/>
<rect x="28.5" y="14" width="1" height="1" fill="black"/>
<rect x="28.5" y="15" width="1" height="1" fill="black"/>
<rect x="28.5" y="16" width="1" height="1" fill="black"/>
<rect x="28.5" y="17" width="1" height="1" fill="black"/>
<rect x="28.5" y="18" width="1" height="1" fill="black"/>
<rect x="28.5" y="19" width="1" height="1" fill="black"/>
<rect x="28.5" y="20" width="1" height="1" fill="black"/>
<rect x="28.5" y="21" width="1" height="1" fill="black"/>
<rect x="28.5" y="22" width="1" height="1" fill="black"/>
<rect x="28.5" y="23" width="1" height="1" fill="black"/>
<rect x="28.5" y="24" width="1" height="1" fill="black"/>
<rect x="28.5" y="25" width="1" height="1" fill="black"/>
<rect x="28.5" y="26" width="1" height="1" fill="black"/>
<rect x="28.5" y="27" width="1" height="1" fill="black"/>
<rect x="28.5" y="28" width="1" height="1" fill="black"/>
<rect x="28.5" y="29" width="1" height="1" fill="black"/>
<rect x="28.5" y="30" width="1" height="1" fill="black"/>
<rect x="28.5" y="31" width="1" height="1" fill="black"/>
<rect x="28.5" y="32" width="1" height="1" fill="black"/>
<rect x="27.5" y="32" width="1" height="1" fill="black"/>
<rect x="26.5" y="32" width="1" height="1" fill="black"/>
<rect x="25.5" y="32" width="1" height="1" fill="black"/>
<rect x="24.5" y="32" width="1" height="1" fill="black"/>
<rect x="23.5" y="32" width="1" height="1" fill="black"/>
<rect x="22.5" y="32" width="1" height="1" fill="black"/>
<rect x="21.5" y="32" width="1" height="1" fill="black"/>
<rect x="20.5" y="32" width="1" height="1" fill="black"/>
<rect x="19.5" y="32" width="1" height="1" fill="black"/>
<rect x="18.5" y="32" width="1" height="1" fill="black"/>
<rect x="17.5" y="32" width="1" height="1" fill="black"/>
<rect x="16.5" y="32" width="1" height="1" fill="black"/>
<rect x="15.5" y="32" width="1" height="1" fill="black"/>
<rect x="14.5" y="32" width="1" height="1" fill="black"/>
<rect x="13.5" y="32" width="1" height="1" fill="black"/>
<rect x="12.5" y="32" width="1" height="1" fill="black"/>
<rect x="11.5" y="32" width="1" height="1" fill="black"/>
<rect x="10.5" y="32" width="1" height="1" fill="black"/>
<rect x="9.5" y="32" width="1" height="1" fill="black"/>
<rect x="8.5" y="32" width="1" height="1" fill="black"/>
<rect x="7.5" y="32" width="1" height="1" fill="black"/>
<rect x="6.5" y="32" width="1" height="1" fill="black"/>
<rect x="5.5" y="32" width="1" height="1" fill="black"/>
<rect x="4.5" y="32" width="1" height="1" fill="black"/>
<rect x="4.5" y="31" width="1" height="1" fill="black"/>
<rect x="4.5" y="30" width="1" height="1" fill="black"/>
<rect x="4.5" y="29" width="1" height="1" fill="black"/>
<rect x="4.5" y="28" width="1" height="1" fill="black"/>
<rect x="4.5" y="27" width="1" height="1" fill="black"/>
<rect x="4.5" y="26" width="1" height="1" fill="black"/>
<rect x="4.5" y="25" width="1" height="1" fill="black"/>
<rect x="4.5" y="24" width="1" height="1" fill="black"/>
<rect x="4.5" y="23" width="1" height="1" fill="black"/>
<rect x="4.5" y="22" width="1" height="1" fill="black"/>
<rect x="4.5" y="21" width="1" height="1" fill="black"/>
<rect x="27.5" y="7" width="1" height="1" fill="black"/>
<rect x="26.5" y="7" width="1" height="1" fill="black"/>
<rect x="25.5" y="7" width="1" height="1" fill="black"/>
<rect x="24.5" y="7" width="1" height="1" fill="black"/>
<rect x="23.5" y="7" width="1" height="1" fill="black"/>
<rect x="22.5" y="7" width="1" height="1" fill="black"/>
<rect x="22.5" y="6" width="1" height="1" fill="black"/>
<rect x="21.5" y="6" width="1" height="1" fill="black"/>
<rect x="12.5" y="6" width="1" height="1" fill="black"/>
<rect x="10.5" y="8" width="1" height="1" fill="black"/>
<rect x="14.5" y="8" width="1" height="1" fill="black"/>
<rect x="16.5" y="6" width="1" height="1" fill="black"/>
<rect x="23.5" y="10" width="1" height="1" fill="black"/>
<rect x="22.5" y="12" width="1" height="1" fill="black"/>
<rect x="19.5" y="8" width="1" height="1" fill="black"/>
<rect x="11.5" y="10" width="1" height="1" fill="black"/>
<rect x="17.5" y="10" width="1" height="1" fill="black"/>
<rect x="23.5" y="15" width="1" height="1" fill="black"/>
<rect x="16.5" y="21" width="1" height="1" fill="black"/>
<rect x="15.5" y="28" width="1" height="1" fill="black"/>
<rect x="12.5" y="15" width="1" height="1" fill="black"/>
<rect x="17.5" y="15" width="1" height="1" fill="black"/>
<rect x="10.5" y="17" width="1" height="1" fill="black"/>
<rect x="15.5" y="17" width="1" height="1" fill="black"/>
<rect x="20.5" y="17" width="1" height="1" fill="black"/>
<rect x="13.5" y="19" width="1" height="1" fill="black"/>
<rect x="18.5" y="19" width="1" height="1" fill="black"/>
<rect x="23.5" y="19" width="1" height="1" fill="black"/>
<rect x="21.5" y="21" width="1" height="1" fill="black"/>
<rect x="10.5" y="21" width="1" height="1" fill="black"/>
<rect x="12.5" y="24" width="1" height="1" fill="black"/>
<rect x="10.5" y="26" width="1" height="1" fill="black"/>
<rect x="20.5" y="28" width="1" height="1" fill="black"/>
<rect x="23.5" y="26" width="1" height="1" fill="black"/>
<rect x="17.5" y="6" width="1" height="1" fill="black"/>
<rect x="24.5" y="10" width="1" height="1" fill="black"/>
<rect x="23.5" y="12" width="1" height="1" fill="black"/>
<rect x="20.5" y="8" width="1" height="1" fill="black"/>
<rect x="12.5" y="10" width="1" height="1" fill="black"/>
<rect x="18.5" y="10" width="1" height="1" fill="black"/>
<rect x="19.5" y="10" width="1" height="1" fill="black"/>
<rect x="24.5" y="15" width="1" height="1" fill="black"/>
<rect x="17.5" y="21" width="1" height="1" fill="black"/>
<rect x="16.5" y="28" width="1" height="1" fill="black"/>
<rect x="13.5" y="15" width="1" height="1" fill="black"/>
<rect x="18.5" y="15" width="1" height="1" fill="black"/>
<rect x="11.5" y="17" width="1" height="1" fill="black"/>
<rect x="16.5" y="17" width="1" height="1" fill="black"/>
<rect x="21.5" y="17" width="1" height="1" fill="black"/>
<rect x="14.5" y="19" width="1" height="1" fill="black"/>
<rect x="19.5" y="19" width="1" height="1" fill="black"/>
<rect x="24.5" y="19" width="1" height="1" fill="black"/>
<rect x="22.5" y="21" width="1" height="1" fill="black"/>
<rect x="11.5" y="21" width="1" height="1" fill="black"/>
<rect x="13.5" y="24" width="1" height="1" fill="black"/>
<rect x="11.5" y="26" width="1" height="1" fill="black"/>
<rect x="21.5" y="28" width="1" height="1" fill="black"/>
<rect x="24.5" y="26" width="1" height="1" fill="black"/>
<rect x="14.5" y="12" width="1" height="1" fill="black"/>
<rect x="10.5" y="12" width="1" height="1" fill="black"/>
<rect x="18.5" y="12" width="1" height="1" fill="black"/>
<rect x="17.5" y="24" width="1" height="1" fill="black"/>
<rect x="15.5" y="26" width="1" height="1" fill="black"/>
<rect x="10.5" y="28" width="1" height="1" fill="black"/>
<rect x="19.5" y="26" width="1" height="1" fill="black"/>
<rect x="24.5" y="24" width="1" height="1" fill="black"/>
<rect x="20.5" y="6" width="1" height="1" fill="black"/>
<rect x="11.5" y="6" width="1" height="1" fill="black"/>
<rect x="9.5" y="8" width="1" height="1" fill="black"/>
<rect x="13.5" y="8" width="1" height="1" fill="black"/>
<rect x="15.5" y="6" width="1" height="1" fill="black"/>
<rect x="22.5" y="10" width="1" height="1" fill="black"/>
<rect x="21.5" y="12" width="1" height="1" fill="black"/>
<rect x="18.5" y="8" width="1" height="1" fill="black"/>
<rect x="10.5" y="10" width="1" height="1" fill="black"/>
<rect x="16.5" y="10" width="1" height="1" fill="black"/>
<rect x="22.5" y="15" width="1" height="1" fill="black"/>
<rect x="15.5" y="21" width="1" height="1" fill="black"/>
<rect x="14.5" y="28" width="1" height="1" fill="black"/>
<rect x="11.5" y="15" width="1" height="1" fill="black"/>
<rect x="16.5" y="15" width="1" height="1" fill="black"/>
<rect x="9.5" y="17" width="1" height="1" fill="black"/>
<rect x="9.5" y="19" width="1" height="1" fill="black"/>
<rect x="24.5" y="17" width="1" height="1" fill="black"/>
<rect x="20.5" y="24" width="1" height="1" fill="black"/>
<rect x="24.5" y="28" width="1" height="1" fill="black"/>
<rect x="14.5" y="17" width="1" height="1" fill="black"/>
<rect x="19.5" y="17" width="1" height="1" fill="black"/>
<rect x="12.5" y="19" width="1" height="1" fill="black"/>
<rect x="17.5" y="19" width="1" height="1" fill="black"/>
<rect x="22.5" y="19" width="1" height="1" fill="black"/>
<rect x="20.5" y="21" width="1" height="1" fill="black"/>
<rect x="9.5" y="21" width="1" height="1" fill="black"/>
<rect x="11.5" y="24" width="1" height="1" fill="black"/>
<rect x="9.5" y="26" width="1" height="1" fill="black"/>
<rect x="19.5" y="28" width="1" height="1" fill="black"/>
<rect x="22.5" y="26" width="1" height="1" fill="black"/>
<rect x="13.5" y="12" width="1" height="1" fill="black"/>
<rect x="9.5" y="12" width="1" height="1" fill="black"/>
<rect x="17.5" y="12" width="1" height="1" fill="black"/>
<rect x="16.5" y="24" width="1" height="1" fill="black"/>
<rect x="14.5" y="26" width="1" height="1" fill="black"/>
<rect x="9.5" y="28" width="1" height="1" fill="black"/>
<rect x="18.5" y="26" width="1" height="1" fill="black"/>
<rect x="23.5" y="24" width="1" height="1" fill="black"/>
<rect x="19.5" y="6" width="1" height="1" fill="black"/>
<rect x="10.5" y="6" width="1" height="1" fill="black"/>
<rect x="8.5" y="8" width="1" height="1" fill="black"/>
<rect x="12.5" y="8" width="1" height="1" fill="black"/>
<rect x="14.5" y="6" width="1" height="1" fill="black"/>
<rect x="21.5" y="10" width="1" height="1" fill="black"/>
<rect x="20.5" y="12" width="1" height="1" fill="black"/>
<rect x="17.5" y="8" width="1" height="1" fill="black"/>
<rect x="9.5" y="10" width="1" height="1" fill="black"/>
<rect x="15.5" y="10" width="1" height="1" fill="black"/>
<rect x="21.5" y="15" width="1" height="1" fill="black"/>
<rect x="14.5" y="21" width="1" height="1" fill="black"/>
<rect x="13.5" y="28" width="1" height="1" fill="black"/>
<rect x="16.5" y="8" width="1" height="1" fill="black"/>
<rect x="8.5" y="10" width="1" height="1" fill="black"/>
<rect x="14.5" y="10" width="1" height="1" fill="black"/>
<rect x="20.5" y="15" width="1" height="1" fill="black"/>
<rect x="13.5" y="21" width="1" height="1" fill="black"/>
<rect x="12.5" y="28" width="1" height="1" fill="black"/>
<rect x="10.5" y="15" width="1" height="1" fill="black"/>
<rect x="15.5" y="15" width="1" height="1" fill="black"/>
<rect x="8.5" y="17" width="1" height="1" fill="black"/>
<rect x="8.5" y="19" width="1" height="1" fill="black"/>
<rect x="23.5" y="17" width="1" height="1" fill="black"/>
<rect x="19.5" y="24" width="1" height="1" fill="black"/>
<rect x="23.5" y="28" width="1" height="1" fill="black"/>
<rect x="13.5" y="17" width="1" height="1" fill="black"/>
<rect x="18.5" y="17" width="1" height="1" fill="black"/>
<rect x="11.5" y="19" width="1" height="1" fill="black"/>
<rect x="16.5" y="19" width="1" height="1" fill="black"/>
<rect x="21.5" y="19" width="1" height="1" fill="black"/>
<rect x="19.5" y="21" width="1" height="1" fill="black"/>
<rect x="8.5" y="21" width="1" height="1" fill="black"/>
<rect x="10.5" y="24" width="1" height="1" fill="black"/>
<rect x="8.5" y="26" width="1" height="1" fill="black"/>
<rect x="18.5" y="28" width="1" height="1" fill="black"/>
<rect x="21.5" y="26" width="1" height="1" fill="black"/>
<rect x="12.5" y="12" width="1" height="1" fill="black"/>
<rect x="8.5" y="12" width="1" height="1" fill="black"/>
<rect x="16.5" y="12" width="1" height="1" fill="black"/>
<rect x="15.5" y="24" width="1" height="1" fill="black"/>
<rect x="13.5" y="26" width="1" height="1" fill="black"/>
<rect x="8.5" y="28" width="1" height="1" fill="black"/>
<rect x="17.5" y="26" width="1" height="1" fill="black"/>
<rect x="22.5" y="24" width="1" height="1" fill="black"/>
<rect x="22.5" y="5" width="1" height="1" fill="black"/>
<rect x="22.5" y="4" width="1" height="1" fill="black"/>
<rect x="22.5" y="3" width="1" height="1" fill="black"/>
<rect x="22.5" y="2" width="1" height="1" fill="black"/>
</svg>
