<svg width="30" height="30" viewBox="0 0 30 30" fill="none" xmlns="http://www.w3.org/2000/svg">
<rect x="13" y="10.5" width="1" height="1" fill="black"/>
<rect width="1" height="1" transform="matrix(-1 0 0 1 17 10.5)" fill="black"/>
<rect x="12" y="9.5" width="1" height="1" fill="black"/>
<rect width="1" height="1" transform="matrix(-1 0 0 1 18 9.5)" fill="black"/>
<rect x="11" y="9.5" width="1" height="1" fill="black"/>
<rect width="1" height="1" transform="matrix(-1 0 0 1 19 9.5)" fill="black"/>
<rect x="10" y="10.5" width="1" height="1" fill="black"/>
<rect width="1" height="1" transform="matrix(-1 0 0 1 20 10.5)" fill="black"/>
<rect x="9" y="11.5" width="1" height="1" fill="black"/>
<rect width="1" height="1" transform="matrix(-1 0 0 1 21 11.5)" fill="black"/>
<rect x="8" y="12.5" width="1" height="1" fill="black"/>
<rect width="1" height="1" transform="matrix(-1 0 0 1 22 12.5)" fill="black"/>
<rect x="7" y="13.5" width="1" height="1" fill="black"/>
<rect width="1" height="1" transform="matrix(-1 0 0 1 23 13.5)" fill="black"/>
<rect x="6" y="14.5" width="1" height="1" fill="black"/>
<rect width="1" height="1" transform="matrix(-1 0 0 1 24 14.5)" fill="black"/>
<rect x="8" y="14.5" width="1" height="1" fill="black"/>
<rect width="1" height="1" transform="matrix(-1 0 0 1 22 14.5)" fill="black"/>
<rect x="7" y="15.5" width="1" height="1" fill="black"/>
<rect width="1" height="1" transform="matrix(-1 0 0 1 23 15.5)" fill="black"/>
<rect x="7" y="16.5" width="1" height="1" fill="black"/>
<rect width="1" height="1" transform="matrix(-1 0 0 1 23 16.5)" fill="black"/>
<rect x="7" y="17.5" width="1" height="1" fill="black"/>
<rect width="1" height="1" transform="matrix(-1 0 0 1 23 17.5)" fill="black"/>
<rect x="8" y="18.5" width="1" height="1" fill="black"/>
<rect width="1" height="1" transform="matrix(-1 0 0 1 22 18.5)" fill="black"/>
<rect x="9" y="19.5" width="1" height="1" fill="black"/>
<rect width="1" height="1" transform="matrix(-1 0 0 1 21 19.5)" fill="black"/>
<rect x="10" y="19.5" width="1" height="1" fill="black"/>
<rect width="1" height="1" transform="matrix(-1 0 0 1 20 19.5)" fill="black"/>
<rect x="11" y="19.5" width="1" height="1" fill="black"/>
<rect width="1" height="1" transform="matrix(-1 0 0 1 19 19.5)" fill="black"/>
<rect x="12" y="18.5" width="1" height="1" fill="black"/>
<rect width="1" height="1" transform="matrix(-1 0 0 1 18 18.5)" fill="black"/>
<rect x="13" y="17.5" width="1" height="1" fill="black"/>
<rect width="1" height="1" transform="matrix(-1 0 0 1 17 17.5)" fill="black"/>
<rect x="13" y="16.5" width="1" height="1" fill="black"/>
<rect width="1" height="1" transform="matrix(-1 0 0 1 17 16.5)" fill="black"/>
<rect x="13" y="15.5" width="1" height="1" fill="black"/>
<rect width="1" height="1" transform="matrix(-1 0 0 1 17 15.5)" fill="black"/>
<rect x="12" y="14.5" width="1" height="1" fill="black"/>
<rect width="1" height="1" transform="matrix(-1 0 0 1 18 14.5)" fill="black"/>
<rect x="14" y="14.5" width="1" height="1" fill="black"/>
<rect x="15" y="14.5" width="1" height="1" fill="black"/>
<rect x="11" y="14.5" width="1" height="1" fill="black"/>
<rect width="1" height="1" transform="matrix(-1 0 0 1 19 14.5)" fill="black"/>
<rect x="10" y="14.5" width="1" height="1" fill="black"/>
<rect width="1" height="1" transform="matrix(-1 0 0 1 20 14.5)" fill="black"/>
<rect x="9" y="14.5" width="1" height="1" fill="black"/>
<rect width="1" height="1" transform="matrix(-1 0 0 1 21 14.5)" fill="black"/>
</svg>
