<svg width="128" height="128" viewBox="0 0 128 128" fill="none" xmlns="http://www.w3.org/2000/svg">
<rect x="16" y="5" width="96" height="117" fill="white"/>
<path d="M12 101.5H16V105.5H12V101.5Z" fill="#212121"/>
<path d="M12 105.5H16V109.5H12V105.5Z" fill="#212121"/>
<path d="M12 109.5H16V113.5H12V109.5Z" fill="#212121"/>
<path d="M12 113.5H16V117.5H12V113.5Z" fill="#212121"/>
<path d="M12 117.5H16V121.5H12V117.5Z" fill="#212121"/>
<path d="M12 121.5H16V125.5H12V121.5Z" fill="#212121"/>
<path d="M16 121.5H20V125.5H16V121.5Z" fill="#212121"/>
<path d="M20 121.5H24V125.5H20V121.5Z" fill="#212121"/>
<path d="M24 121.5H28V125.5H24V121.5Z" fill="#212121"/>
<path d="M28 121.5H32V125.5H28V121.5Z" fill="#212121"/>
<path d="M32 121.5H36V125.5H32V121.5Z" fill="#212121"/>
<path d="M36 121.5H40V125.5H36V121.5Z" fill="#212121"/>
<path d="M40 121.5H44V125.5H40V121.5Z" fill="#212121"/>
<path d="M44 121.5H48V125.5H44V121.5Z" fill="#212121"/>
<path d="M48 121.5H52V125.5H48V121.5Z" fill="#212121"/>
<path d="M52 121.5H56V125.5H52V121.5Z" fill="#212121"/>
<path d="M56 121.5H60V125.5H56V121.5Z" fill="#212121"/>
<path d="M60 121.5H64V125.5H60V121.5Z" fill="#212121"/>
<path d="M64 121.5H68V125.5H64V121.5Z" fill="#212121"/>
<path d="M68 121.5H72V125.5H68V121.5Z" fill="#212121"/>
<path d="M72 121.5H76V125.5H72V121.5Z" fill="#212121"/>
<path d="M76 121.5H80V125.5H76V121.5Z" fill="#212121"/>
<path d="M80 121.5H84V125.5H80V121.5Z" fill="#212121"/>
<path d="M84 121.5H88V125.5H84V121.5Z" fill="#212121"/>
<path d="M88 121.5H92V125.5H88V121.5Z" fill="#212121"/>
<path d="M92 121.5H96V125.5H92V121.5Z" fill="#212121"/>
<path d="M96 121.5H100V125.5H96V121.5Z" fill="#212121"/>
<path d="M100 121.5H104V125.5H100V121.5Z" fill="#212121"/>
<path d="M104 121.5H108V125.5H104V121.5Z" fill="#212121"/>
<path d="M104 117.5H108V121.5H104V117.5Z" fill="#212121"/>
<path d="M104 113.5H108V117.5H104V113.5Z" fill="#212121"/>
<path d="M104 109.5H108V113.5H104V109.5Z" fill="#212121"/>
<path d="M104 105.5H108V109.5H104V105.5Z" fill="#212121"/>
<path d="M104 101.5H108V105.5H104V101.5Z" fill="#212121"/>
<path d="M104 97.5H108V101.5H104V97.5Z" fill="#212121"/>
<path d="M104 93.5H108V97.5H104V93.5Z" fill="#212121"/>
<path d="M104 89.5H108V93.5H104V89.5Z" fill="#212121"/>
<path d="M104 85.5H108V89.5H104V85.5Z" fill="#212121"/>
<path d="M104 81.5H108V85.5H104V81.5Z" fill="#212121"/>
<path d="M104 77.5H108V81.5H104V77.5Z" fill="#212121"/>
<path d="M104 73.5H108V77.5H104V73.5Z" fill="#212121"/>
<path d="M104 69.5H108V73.5H104V69.5Z" fill="#212121"/>
<path d="M104 65.5H108V69.5H104V65.5Z" fill="#212121"/>
<path d="M104 61.5H108V65.5H104V61.5Z" fill="#212121"/>
<path d="M104 57.5H108V61.5H104V57.5Z" fill="#212121"/>
<path d="M104 53.5H108V57.5H104V53.5Z" fill="#212121"/>
<path d="M104 49.5H108V53.5H104V49.5Z" fill="#212121"/>
<path d="M104 45.5H108V49.5H104V45.5Z" fill="#212121"/>
<path d="M104 41.5H108V45.5H104V41.5Z" fill="#212121"/>
<path d="M104 37.5H108V41.5H104V37.5Z" fill="#212121"/>
<path d="M108 37.5H112V41.5H108V37.5Z" fill="#212121"/>
<path d="M112 41.5H116V45.5H112V41.5Z" fill="#212121"/>
<path d="M112 25.5H116V29.5H112V25.5Z" fill="#212121"/>
<path d="M112 9.5H116V13.5H112V9.5Z" fill="#212121"/>
<path d="M108 5.5H112V9.5H108V5.5Z" fill="#212121"/>
<path d="M104 5.5H108V9.5H104V5.5Z" fill="#212121"/>
<path d="M104 9.5H108V13.5H104V9.5Z" fill="#212121"/>
<path d="M104 13.5H108V17.5H104V13.5Z" fill="#212121"/>
<path d="M104 17.5H108V21.5H104V17.5Z" fill="#212121"/>
<path d="M104 21.5H108V25.5H104V21.5Z" fill="#212121"/>
<path d="M108 21.5H112V25.5H108V21.5Z" fill="#212121"/>
<path d="M112 29.5H116V33.5H112V29.5Z" fill="#212121"/>
<path d="M112 45.5H116V49.5H112V45.5Z" fill="#212121"/>
<path d="M112 33.5H116V37.5H112V33.5Z" fill="#212121"/>
<path d="M112 13.5H116V17.5H112V13.5Z" fill="#212121"/>
<path d="M112 49.5H116V53.5H112V49.5Z" fill="#212121"/>
<path d="M112 17.5H116V21.5H112V17.5Z" fill="#212121"/>
<path d="M112 57.5H116V61.5H112V57.5Z" fill="#212121"/>
<path d="M112 73.5H116V77.5H112V73.5Z" fill="#212121"/>
<path d="M112 89.5H116V93.5H112V89.5Z" fill="#212121"/>
<path d="M112 105.5H116V109.5H112V105.5Z" fill="#212121"/>
<path d="M112 61.5H116V65.5H112V61.5Z" fill="#212121"/>
<path d="M112 77.5H116V81.5H112V77.5Z" fill="#212121"/>
<path d="M112 93.5H116V97.5H112V93.5Z" fill="#212121"/>
<path d="M112 109.5H116V113.5H112V109.5Z" fill="#212121"/>
<path d="M112 65.5H116V69.5H112V65.5Z" fill="#212121"/>
<path d="M112 81.5H116V85.5H112V81.5Z" fill="#212121"/>
<path d="M112 97.5H116V101.5H112V97.5Z" fill="#212121"/>
<path d="M112 113.5H116V117.5H112V113.5Z" fill="#212121"/>
<path d="M108 117.5H112V121.5H108V117.5Z" fill="#212121"/>
<path d="M108 101.5H112V105.5H108V101.5Z" fill="#212121"/>
<path d="M108 85.5H112V89.5H108V85.5Z" fill="#212121"/>
<path d="M108 69.5H112V73.5H108V69.5Z" fill="#212121"/>
<path d="M108 53.5H112V57.5H108V53.5Z" fill="#212121"/>
<path d="M12 77.5H16V81.5H12V77.5Z" fill="#212121"/>
<path d="M12 53.5H16V57.5H12V53.5Z" fill="#212121"/>
<path d="M12 29.5H16V33.5H12V29.5Z" fill="#212121"/>
<path d="M12 5.5H16V9.5H12V5.5Z" fill="#212121"/>
<path d="M12 81.5H16V85.5H12V81.5Z" fill="#212121"/>
<path d="M12 57.5H16V61.5H12V57.5Z" fill="#212121"/>
<path d="M12 33.5H16V37.5H12V33.5Z" fill="#212121"/>
<path d="M12 9.5H16V13.5H12V9.5Z" fill="#212121"/>
<path d="M12 1.5H16V5.5H12V1.5Z" fill="#212121"/>
<path d="M32 21.5H36V25.5H32V21.5Z" fill="#212121"/>
<path d="M36 21.5H40V25.5H36V21.5Z" fill="#212121"/>
<path d="M40 21.5H44V25.5H40V21.5Z" fill="#212121"/>
<path d="M32 33.5H36V37.5H32V33.5Z" fill="#212121"/>
<path d="M32 45.5H36V49.5H32V45.5Z" fill="#212121"/>
<path d="M32 57.5H36V61.5H32V57.5Z" fill="#212121"/>
<path d="M32 69.5H36V73.5H32V69.5Z" fill="#212121"/>
<path d="M32 81.5H36V85.5H32V81.5Z" fill="#212121"/>
<path d="M32 93.5H36V97.5H32V93.5Z" fill="#212121"/>
<path d="M32 105.5H36V109.5H32V105.5Z" fill="#212121"/>
<path d="M52 105.5H56V109.5H52V105.5Z" fill="#212121"/>
<path d="M64 105.5H68V109.5H64V105.5Z" fill="#212121"/>
<path d="M76 105.5H80V109.5H76V105.5Z" fill="#212121"/>
<path d="M52 93.5H56V97.5H52V93.5Z" fill="#212121"/>
<path d="M52 81.5H56V85.5H52V81.5Z" fill="#212121"/>
<path d="M52 69.5H56V73.5H52V69.5Z" fill="#212121"/>
<path d="M52 57.5H56V61.5H52V57.5Z" fill="#212121"/>
<path d="M52 45.5H56V49.5H52V45.5Z" fill="#212121"/>
<path d="M52 33.5H56V37.5H52V33.5Z" fill="#212121"/>
<path d="M52 21.5H56V25.5H52V21.5Z" fill="#212121"/>
<path d="M64 93.5H68V97.5H64V93.5Z" fill="#212121"/>
<path d="M64 81.5H68V85.5H64V81.5Z" fill="#212121"/>
<path d="M64 69.5H68V73.5H64V69.5Z" fill="#212121"/>
<path d="M64 57.5H68V61.5H64V57.5Z" fill="#212121"/>
<path d="M64 45.5H68V49.5H64V45.5Z" fill="#212121"/>
<path d="M64 33.5H68V37.5H64V33.5Z" fill="#212121"/>
<path d="M64 21.5H68V25.5H64V21.5Z" fill="#212121"/>
<path d="M76 93.5H80V97.5H76V93.5Z" fill="#212121"/>
<path d="M76 81.5H80V85.5H76V81.5Z" fill="#212121"/>
<path d="M76 69.5H80V73.5H76V69.5Z" fill="#212121"/>
<path d="M76 57.5H80V61.5H76V57.5Z" fill="#212121"/>
<path d="M76 45.5H80V49.5H76V45.5Z" fill="#212121"/>
<path d="M76 33.5H80V37.5H76V33.5Z" fill="#212121"/>
<path d="M76 21.5H80V25.5H76V21.5Z" fill="#212121"/>
<path d="M36 33.5H40V37.5H36V33.5Z" fill="#212121"/>
<path d="M36 45.5H40V49.5H36V45.5Z" fill="#212121"/>
<path d="M36 57.5H40V61.5H36V57.5Z" fill="#212121"/>
<path d="M56 105.5H60V109.5H56V105.5Z" fill="#212121"/>
<path d="M36 69.5H40V73.5H36V69.5Z" fill="#212121"/>
<path d="M68 105.5H72V109.5H68V105.5Z" fill="#212121"/>
<path d="M80 105.5H84V109.5H80V105.5Z" fill="#212121"/>
<path d="M36 81.5H40V85.5H36V81.5Z" fill="#212121"/>
<path d="M36 105.5H40V109.5H36V105.5Z" fill="#212121"/>
<path d="M56 93.5H60V97.5H56V93.5Z" fill="#212121"/>
<path d="M56 81.5H60V85.5H56V81.5Z" fill="#212121"/>
<path d="M56 69.5H60V73.5H56V69.5Z" fill="#212121"/>
<path d="M56 57.5H60V61.5H56V57.5Z" fill="#212121"/>
<path d="M56 45.5H60V49.5H56V45.5Z" fill="#212121"/>
<path d="M56 33.5H60V37.5H56V33.5Z" fill="#212121"/>
<path d="M56 21.5H60V25.5H56V21.5Z" fill="#212121"/>
<path d="M36 93.5H40V97.5H36V93.5Z" fill="#212121"/>
<path d="M68 93.5H72V97.5H68V93.5Z" fill="#212121"/>
<path d="M68 81.5H72V85.5H68V81.5Z" fill="#212121"/>
<path d="M68 69.5H72V73.5H68V69.5Z" fill="#212121"/>
<path d="M68 57.5H72V61.5H68V57.5Z" fill="#212121"/>
<path d="M68 45.5H72V49.5H68V45.5Z" fill="#212121"/>
<path d="M68 33.5H72V37.5H68V33.5Z" fill="#212121"/>
<path d="M68 21.5H72V25.5H68V21.5Z" fill="#212121"/>
<path d="M60 105.5H64V109.5H60V105.5Z" fill="#212121"/>
<path d="M80 93.5H84V97.5H80V93.5Z" fill="#212121"/>
<path d="M80 81.5H84V85.5H80V81.5Z" fill="#212121"/>
<path d="M80 69.5H84V73.5H80V69.5Z" fill="#212121"/>
<path d="M80 57.5H84V61.5H80V57.5Z" fill="#212121"/>
<path d="M80 45.5H84V49.5H80V45.5Z" fill="#212121"/>
<path d="M80 33.5H84V37.5H80V33.5Z" fill="#212121"/>
<path d="M80 21.5H84V25.5H80V21.5Z" fill="#212121"/>
<path d="M40 33.5H44V37.5H40V33.5Z" fill="#212121"/>
<path d="M72 105.5H76V109.5H72V105.5Z" fill="#212121"/>
<path d="M84 105.5H88V109.5H84V105.5Z" fill="#212121"/>
<path d="M40 45.5H44V49.5H40V45.5Z" fill="#212121"/>
<path d="M40 57.5H44V61.5H40V57.5Z" fill="#212121"/>
<path d="M40 69.5H44V73.5H40V69.5Z" fill="#212121"/>
<path d="M40 105.5H44V109.5H40V105.5Z" fill="#212121"/>
<path d="M60 93.5H64V97.5H60V93.5Z" fill="#212121"/>
<path d="M60 81.5H64V85.5H60V81.5Z" fill="#212121"/>
<path d="M60 69.5H64V73.5H60V69.5Z" fill="#212121"/>
<path d="M60 57.5H64V61.5H60V57.5Z" fill="#212121"/>
<path d="M60 45.5H64V49.5H60V45.5Z" fill="#212121"/>
<path d="M60 33.5H64V37.5H60V33.5Z" fill="#212121"/>
<path d="M60 21.5H64V25.5H60V21.5Z" fill="#212121"/>
<path d="M40 81.5H44V85.5H40V81.5Z" fill="#212121"/>
<path d="M40 93.5H44V97.5H40V93.5Z" fill="#212121"/>
<path d="M72 93.5H76V97.5H72V93.5Z" fill="#212121"/>
<path d="M72 81.5H76V85.5H72V81.5Z" fill="#212121"/>
<path d="M72 69.5H76V73.5H72V69.5Z" fill="#212121"/>
<path d="M72 57.5H76V61.5H72V57.5Z" fill="#212121"/>
<path d="M72 45.5H76V49.5H72V45.5Z" fill="#212121"/>
<path d="M72 33.5H76V37.5H72V33.5Z" fill="#212121"/>
<path d="M72 21.5H76V25.5H72V21.5Z" fill="#212121"/>
<path d="M84 93.5H88V97.5H84V93.5Z" fill="#212121"/>
<path d="M84 81.5H88V85.5H84V81.5Z" fill="#212121"/>
<path d="M84 69.5H88V73.5H84V69.5Z" fill="#212121"/>
<path d="M84 57.5H88V61.5H84V57.5Z" fill="#212121"/>
<path d="M84 45.5H88V49.5H84V45.5Z" fill="#212121"/>
<path d="M84 33.5H88V37.5H84V33.5Z" fill="#212121"/>
<path d="M84 21.5H88V25.5H84V21.5Z" fill="#212121"/>
<path d="M16 1.5H20V5.5H16V1.5Z" fill="#212121"/>
<path d="M20 1.5H24V5.5H20V1.5Z" fill="#212121"/>
<path d="M24 1.5H28V5.5H24V1.5Z" fill="#212121"/>
<path d="M28 1.5H32V5.5H28V1.5Z" fill="#212121"/>
<path d="M32 1.5H36V5.5H32V1.5Z" fill="#212121"/>
<path d="M36 1.5H40V5.5H36V1.5Z" fill="#212121"/>
<path d="M40 1.5H44V5.5H40V1.5Z" fill="#212121"/>
<path d="M44 1.5H48V5.5H44V1.5Z" fill="#212121"/>
<path d="M48 1.5H52V5.5H48V1.5Z" fill="#212121"/>
<path d="M52 1.5H56V5.5H52V1.5Z" fill="#212121"/>
<path d="M56 1.5H60V5.5H56V1.5Z" fill="#212121"/>
<path d="M60 1.5H64V5.5H60V1.5Z" fill="#212121"/>
<path d="M64 1.5H68V5.5H64V1.5Z" fill="#212121"/>
<path d="M68 1.5H72V5.5H68V1.5Z" fill="#212121"/>
<path d="M72 1.5H76V5.5H72V1.5Z" fill="#212121"/>
<path d="M76 1.5H80V5.5H76V1.5Z" fill="#212121"/>
<path d="M80 1.5H84V5.5H80V1.5Z" fill="#212121"/>
<path d="M84 1.5H88V5.5H84V1.5Z" fill="#212121"/>
<path d="M88 1.5H92V5.5H88V1.5Z" fill="#212121"/>
<path d="M92 1.5H96V5.5H92V1.5Z" fill="#212121"/>
<path d="M96 1.5H100V5.5H96V1.5Z" fill="#212121"/>
<path d="M100 1.5H104V5.5H100V1.5Z" fill="#212121"/>
<path d="M104 1.5H108V5.5H104V1.5Z" fill="#212121"/>
<path d="M12 85.5H16V89.5H12V85.5Z" fill="#212121"/>
<path d="M12 61.5H16V65.5H12V61.5Z" fill="#212121"/>
<path d="M12 37.5H16V41.5H12V37.5Z" fill="#212121"/>
<path d="M12 13.5H16V17.5H12V13.5Z" fill="#212121"/>
<path d="M12 89.5H16V93.5H12V89.5Z" fill="#212121"/>
<path d="M12 65.5H16V69.5H12V65.5Z" fill="#212121"/>
<path d="M12 41.5H16V45.5H12V41.5Z" fill="#212121"/>
<path d="M12 17.5H16V21.5H12V17.5Z" fill="#212121"/>
<path d="M12 93.5H16V97.5H12V93.5Z" fill="#212121"/>
<path d="M12 69.5H16V73.5H12V69.5Z" fill="#212121"/>
<path d="M12 45.5H16V49.5H12V45.5Z" fill="#212121"/>
<path d="M12 21.5H16V25.5H12V21.5Z" fill="#212121"/>
<path d="M12 97.5H16V101.5H12V97.5Z" fill="#212121"/>
<path d="M12 73.5H16V77.5H12V73.5Z" fill="#212121"/>
<path d="M12 49.5H16V53.5H12V49.5Z" fill="#212121"/>
<path d="M12 25.5H16V29.5H12V25.5Z" fill="#212121"/>
</svg>
