<svg width="128" height="128" viewBox="0 0 128 128" fill="none" xmlns="http://www.w3.org/2000/svg">
<rect x="22" y="3" width="84" height="121" fill="white"/>
<rect x="18" y="8" width="92" height="100" fill="white"/>
<path d="M22 0H106V4H22V0Z" fill="#212121"/>
<path d="M106 4H110V8H106V4Z" fill="#212121"/>
<path d="M14 8H18V108H14V8Z" fill="#212121"/>
<path d="M110 8H114V108H110V8Z" fill="#212121"/>
<path d="M18 4H22V8H18V4Z" fill="#212121"/>
<path d="M26 16H30V20H26V16Z" fill="#212121"/>
<path d="M98 16H102V20H98V16Z" fill="#212121"/>
<path d="M26 20H30V24H26V20Z" fill="#212121"/>
<path d="M98 20H102V24H98V20Z" fill="#212121"/>
<path d="M26 24H30V28H26V24Z" fill="#212121"/>
<path d="M98 24H102V28H98V24Z" fill="#212121"/>
<path d="M26 28H30V32H26V28Z" fill="#212121"/>
<path d="M46 28H50V32H46V28Z" fill="#212121"/>
<path d="M74 28H78V32H74V28Z" fill="#212121"/>
<path d="M62 28H66V32H62V28Z" fill="#212121"/>
<path d="M62 32H66V36H62V32Z" fill="#212121"/>
<path d="M62 36H66V40H62V36Z" fill="#212121"/>
<path d="M62 40H66V44H62V40Z" fill="#212121"/>
<path d="M62 44H66V48H62V44Z" fill="#212121"/>
<path d="M58 44H62V48H58V44Z" fill="#212121"/>
<path d="M58 56H62V60H58V56Z" fill="#212121"/>
<path d="M54 56H58V60H54V56Z" fill="#212121"/>
<path d="M62 56H66V60H62V56Z" fill="#212121"/>
<path d="M66 56H70V60H66V56Z" fill="#212121"/>
<path d="M70 52H74V56H70V52Z" fill="#212121"/>
<path d="M50 52H54V56H50V52Z" fill="#212121"/>
<path d="M46 32H50V36H46V32Z" fill="#212121"/>
<path d="M74 32H78V36H74V32Z" fill="#212121"/>
<path d="M98 28H102V32H98V28Z" fill="#212121"/>
<path d="M26 32H30V36H26V32Z" fill="#212121"/>
<path d="M98 32H102V36H98V32Z" fill="#212121"/>
<path d="M26 36H30V40H26V36Z" fill="#212121"/>
<path d="M98 36H102V40H98V36Z" fill="#212121"/>
<path d="M26 40H30V44H26V40Z" fill="#212121"/>
<path d="M98 40H102V44H98V40Z" fill="#212121"/>
<path d="M26 44H30V48H26V44Z" fill="#212121"/>
<path d="M98 44H102V48H98V44Z" fill="#212121"/>
<path d="M26 48H30V52H26V48Z" fill="#212121"/>
<path d="M98 48H102V52H98V48Z" fill="#212121"/>
<path d="M26 52H30V56H26V52Z" fill="#212121"/>
<path d="M98 52H102V56H98V52Z" fill="#212121"/>
<path d="M26 56H30V60H26V56Z" fill="#212121"/>
<path d="M98 56H102V60H98V56Z" fill="#212121"/>
<path d="M26 60H30V64H26V60Z" fill="#212121"/>
<path d="M98 60H102V64H98V60Z" fill="#212121"/>
<path d="M26 64H30V68H26V64Z" fill="#212121"/>
<path d="M26 92H30V96H26V92Z" fill="#212121"/>
<path d="M30 92H34V96H30V92Z" fill="#212121"/>
<path d="M74 88H78V92H74V88Z" fill="#212121"/>
<path d="M82 88H86V92H82V88Z" fill="#212121"/>
<path d="M90 88H94V92H90V88Z" fill="#212121"/>
<path d="M78 88H82V92H78V88Z" fill="#212121"/>
<path d="M86 88H90V92H86V88Z" fill="#212121"/>
<path d="M94 88H98V92H94V88Z" fill="#212121"/>
<path d="M22 108H106V112H22V108Z" fill="#212121"/>
<path d="M98 64H102V68H98V64Z" fill="#212121"/>
<path d="M30 68H98V72H30V68Z" fill="#212121"/>
<path d="M30 12H34V16H30V12Z" fill="#212121"/>
<path d="M34 12H38V16H34V12Z" fill="#212121"/>
<path d="M38 12H42V16H38V12Z" fill="#212121"/>
<path d="M42 12H46V16H42V12Z" fill="#212121"/>
<path d="M46 12H50V16H46V12Z" fill="#212121"/>
<path d="M50 12H54V16H50V12Z" fill="#212121"/>
<path d="M54 12H58V16H54V12Z" fill="#212121"/>
<path d="M58 12H62V16H58V12Z" fill="#212121"/>
<path d="M62 12H66V16H62V12Z" fill="#212121"/>
<path d="M66 12H70V16H66V12Z" fill="#212121"/>
<path d="M70 12H74V16H70V12Z" fill="#212121"/>
<path d="M74 12H78V16H74V12Z" fill="#212121"/>
<path d="M78 12H82V16H78V12Z" fill="#212121"/>
<path d="M82 12H86V16H82V12Z" fill="#212121"/>
<path d="M86 12H90V16H86V12Z" fill="#212121"/>
<path d="M90 12H94V16H90V12Z" fill="#212121"/>
<path d="M94 12H98V16H94V12Z" fill="#212121"/>
<path d="M18 108H22V128H18V108Z" fill="#212121"/>
<path d="M106 108H110V128H106V108Z" fill="#212121"/>
<path d="M22 124H26V128H22V124Z" fill="#212121"/>
<path d="M26 124H30V128H26V124Z" fill="#212121"/>
<path d="M30 124H34V128H30V124Z" fill="#212121"/>
<path d="M34 124H38V128H34V124Z" fill="#212121"/>
<path d="M38 124H42V128H38V124Z" fill="#212121"/>
<path d="M42 124H46V128H42V124Z" fill="#212121"/>
<path d="M46 124H50V128H46V124Z" fill="#212121"/>
<path d="M50 124H54V128H50V124Z" fill="#212121"/>
<path d="M54 124H58V128H54V124Z" fill="#212121"/>
<path d="M58 124H62V128H58V124Z" fill="#212121"/>
<path d="M62 124H66V128H62V124Z" fill="#212121"/>
<path d="M66 124H70V128H66V124Z" fill="#212121"/>
<path d="M70 124H74V128H70V124Z" fill="#212121"/>
<path d="M74 124H78V128H74V124Z" fill="#212121"/>
<path d="M78 124H82V128H78V124Z" fill="#212121"/>
<path d="M82 124H86V128H82V124Z" fill="#212121"/>
<path d="M86 124H90V128H86V124Z" fill="#212121"/>
<path d="M90 124H94V128H90V124Z" fill="#212121"/>
<path d="M94 124H98V128H94V124Z" fill="#212121"/>
<path d="M98 124H102V128H98V124Z" fill="#212121"/>
<path d="M102 124H106V128H102V124Z" fill="#212121"/>
<path d="M106 124H110V128H106V124Z" fill="#212121"/>
</svg>
