<svg width="128" height="128" viewBox="0 0 128 128" fill="none" xmlns="http://www.w3.org/2000/svg">
<rect x="14" y="14" width="92" height="100" fill="white"/>
<rect x="105" y="18" width="9" height="96" fill="white"/>
<path d="M14 10H18V14H14V10Z" fill="#212121"/>
<path d="M10 14H14V18H10V14Z" fill="#212121"/>
<path d="M10 18H14V22H10V18Z" fill="#212121"/>
<path d="M10 22H14V26H10V22Z" fill="#212121"/>
<path d="M10 26H14V30H10V26Z" fill="#212121"/>
<path d="M10 30H14V34H10V30Z" fill="#212121"/>
<path d="M10 34H14V38H10V34Z" fill="#212121"/>
<path d="M10 38H14V42H10V38Z" fill="#212121"/>
<path d="M10 42H14V46H10V42Z" fill="#212121"/>
<path d="M10 46H14V50H10V46Z" fill="#212121"/>
<path d="M10 50H14V54H10V50Z" fill="#212121"/>
<path d="M10 54H14V58H10V54Z" fill="#212121"/>
<path d="M10 58H14V62H10V58Z" fill="#212121"/>
<path d="M10 62H14V66H10V62Z" fill="#212121"/>
<path d="M10 66H14V70H10V66Z" fill="#212121"/>
<path d="M10 70H14V74H10V70Z" fill="#212121"/>
<path d="M10 74H14V78H10V74Z" fill="#212121"/>
<path d="M10 78H14V82H10V78Z" fill="#212121"/>
<path d="M10 82H14V86H10V82Z" fill="#212121"/>
<path d="M10 86H14V90H10V86Z" fill="#212121"/>
<path d="M10 90H14V94H10V90Z" fill="#212121"/>
<path d="M10 94H14V98H10V94Z" fill="#212121"/>
<path d="M10 98H14V102H10V98Z" fill="#212121"/>
<path d="M10 102H14V106H10V102Z" fill="#212121"/>
<path d="M10 106H14V110H10V106Z" fill="#212121"/>
<path d="M10 110H14V114H10V110Z" fill="#212121"/>
<path d="M14 114H18V118H14V114Z" fill="#212121"/>
<path d="M18 114H22V118H18V114Z" fill="#212121"/>
<path d="M22 114H26V118H22V114Z" fill="#212121"/>
<path d="M26 114H30V118H26V114Z" fill="#212121"/>
<path d="M30 114H34V118H30V114Z" fill="#212121"/>
<path d="M34 114H38V118H34V114Z" fill="#212121"/>
<path d="M38 114H42V118H38V114Z" fill="#212121"/>
<path d="M42 114H46V118H42V114Z" fill="#212121"/>
<path d="M46 114H50V118H46V114Z" fill="#212121"/>
<path d="M50 114H54V118H50V114Z" fill="#212121"/>
<path d="M54 114H58V118H54V114Z" fill="#212121"/>
<path d="M58 114H62V118H58V114Z" fill="#212121"/>
<path d="M62 114H66V118H62V114Z" fill="#212121"/>
<path d="M66 114H70V118H66V114Z" fill="#212121"/>
<path d="M70 114H74V118H70V114Z" fill="#212121"/>
<path d="M74 114H78V118H74V114Z" fill="#212121"/>
<path d="M78 114H82V118H78V114Z" fill="#212121"/>
<path d="M82 114H86V118H82V114Z" fill="#212121"/>
<path d="M86 114H90V118H86V114Z" fill="#212121"/>
<path d="M90 114H94V118H90V114Z" fill="#212121"/>
<path d="M94 114H98V118H94V114Z" fill="#212121"/>
<path d="M98 114H102V118H98V114Z" fill="#212121"/>
<path d="M102 114H106V118H102V114Z" fill="#212121"/>
<path d="M106 114H110V118H106V114Z" fill="#212121"/>
<path d="M110 114H114V118H110V114Z" fill="#212121"/>
<path d="M114 110H118V114H114V110Z" fill="#212121"/>
<path d="M114 106H118V110H114V106Z" fill="#212121"/>
<path d="M114 102H118V106H114V102Z" fill="#212121"/>
<path d="M114 98H118V102H114V98Z" fill="#212121"/>
<path d="M114 94H118V98H114V94Z" fill="#212121"/>
<path d="M114 90H118V94H114V90Z" fill="#212121"/>
<path d="M114 86H118V90H114V86Z" fill="#212121"/>
<path d="M114 82H118V86H114V82Z" fill="#212121"/>
<path d="M114 78H118V82H114V78Z" fill="#212121"/>
<path d="M114 74H118V78H114V74Z" fill="#212121"/>
<path d="M114 70H118V74H114V70Z" fill="#212121"/>
<path d="M114 66H118V70H114V66Z" fill="#212121"/>
<path d="M114 62H118V66H114V62Z" fill="#212121"/>
<path d="M114 58H118V62H114V58Z" fill="#212121"/>
<path d="M114 54H118V58H114V54Z" fill="#212121"/>
<path d="M114 50H118V54H114V50Z" fill="#212121"/>
<path d="M114 46H118V50H114V46Z" fill="#212121"/>
<path d="M114 42H118V46H114V42Z" fill="#212121"/>
<path d="M114 38H118V42H114V38Z" fill="#212121"/>
<path d="M114 34H118V38H114V34Z" fill="#212121"/>
<path d="M114 30H118V34H114V30Z" fill="#212121"/>
<path d="M114 26H118V30H114V26Z" fill="#212121"/>
<path d="M114 22H118V26H114V22Z" fill="#212121"/>
<path d="M110 18H114V22H110V18Z" fill="#212121"/>
<path d="M106 14H110V18H106V14Z" fill="#212121"/>
<path d="M102 10H106V14H102V10Z" fill="#212121"/>
<path d="M98 10H102V14H98V10Z" fill="#212121"/>
<path d="M94 10H98V14H94V10Z" fill="#212121"/>
<path d="M90 10H94V14H90V10Z" fill="#212121"/>
<path d="M86 10H90V14H86V10Z" fill="#212121"/>
<path d="M82 10H86V14H82V10Z" fill="#212121"/>
<path d="M78 10H82V14H78V10Z" fill="#212121"/>
<path d="M74 10H78V14H74V10Z" fill="#212121"/>
<path d="M70 10H74V14H70V10Z" fill="#212121"/>
<path d="M66 10H70V14H66V10Z" fill="#212121"/>
<path d="M62 10H66V14H62V10Z" fill="#212121"/>
<path d="M58 10H62V14H58V10Z" fill="#212121"/>
<path d="M54 10H58V14H54V10Z" fill="#212121"/>
<path d="M50 10H54V14H50V10Z" fill="#212121"/>
<path d="M46 10H50V14H46V10Z" fill="#212121"/>
<path d="M42 10H46V14H42V10Z" fill="#212121"/>
<path d="M38 10H42V14H38V10Z" fill="#212121"/>
<path d="M34 10H38V14H34V10Z" fill="#212121"/>
<path d="M34 14H38V18H34V14Z" fill="#212121"/>
<path d="M34 18H38V22H34V18Z" fill="#212121"/>
<path d="M34 22H38V26H34V22Z" fill="#212121"/>
<path d="M34 26H38V30H34V26Z" fill="#212121"/>
<path d="M34 30H38V34H34V30Z" fill="#212121"/>
<path d="M34 34H38V38H34V34Z" fill="#212121"/>
<path d="M34 38H38V42H34V38Z" fill="#212121"/>
<path d="M34 42H38V46H34V42Z" fill="#212121"/>
<path d="M38 46H42V50H38V46Z" fill="#212121"/>
<path d="M30 62H34V66H30V62Z" fill="#212121"/>
<path d="M34 62H38V66H34V62Z" fill="#212121"/>
<path d="M38 62H42V66H38V62Z" fill="#212121"/>
<path d="M42 62H46V66H42V62Z" fill="#212121"/>
<path d="M46 62H50V66H46V62Z" fill="#212121"/>
<path d="M50 62H54V66H50V62Z" fill="#212121"/>
<path d="M54 62H58V66H54V62Z" fill="#212121"/>
<path d="M58 62H62V66H58V62Z" fill="#212121"/>
<path d="M62 62H66V66H62V62Z" fill="#212121"/>
<path d="M66 62H70V66H66V62Z" fill="#212121"/>
<path d="M70 62H74V66H70V62Z" fill="#212121"/>
<path d="M74 62H78V66H74V62Z" fill="#212121"/>
<path d="M78 62H82V66H78V62Z" fill="#212121"/>
<path d="M82 62H86V66H82V62Z" fill="#212121"/>
<path d="M86 62H90V66H86V62Z" fill="#212121"/>
<path d="M90 62H94V66H90V62Z" fill="#212121"/>
<path d="M94 62H98V66H94V62Z" fill="#212121"/>
<path d="M98 66H102V70H98V66Z" fill="#212121"/>
<path d="M98 70H102V74H98V70Z" fill="#212121"/>
<path d="M98 74H102V78H98V74Z" fill="#212121"/>
<path d="M98 78H102V82H98V78Z" fill="#212121"/>
<path d="M98 82H102V86H98V82Z" fill="#212121"/>
<path d="M98 86H102V90H98V86Z" fill="#212121"/>
<path d="M98 90H102V94H98V90Z" fill="#212121"/>
<path d="M98 94H102V98H98V94Z" fill="#212121"/>
<path d="M98 98H102V102H98V98Z" fill="#212121"/>
<path d="M98 102H102V106H98V102Z" fill="#212121"/>
<path d="M98 106H102V110H98V106Z" fill="#212121"/>
<path d="M98 110H102V114H98V110Z" fill="#212121"/>
<path d="M26 66H30V70H26V66Z" fill="#212121"/>
<path d="M26 70H30V74H26V70Z" fill="#212121"/>
<path d="M26 74H30V78H26V74Z" fill="#212121"/>
<path d="M26 78H30V82H26V78Z" fill="#212121"/>
<path d="M26 82H30V86H26V82Z" fill="#212121"/>
<path d="M26 86H30V90H26V86Z" fill="#212121"/>
<path d="M26 90H30V94H26V90Z" fill="#212121"/>
<path d="M26 94H30V98H26V94Z" fill="#212121"/>
<path d="M26 98H30V102H26V98Z" fill="#212121"/>
<path d="M26 102H30V106H26V102Z" fill="#212121"/>
<path d="M26 106H30V110H26V106Z" fill="#212121"/>
<path d="M26 110H30V114H26V110Z" fill="#212121"/>
<path d="M42 46H46V50H42V46Z" fill="#212121"/>
<path d="M46 46H50V50H46V46Z" fill="#212121"/>
<path d="M50 46H54V50H50V46Z" fill="#212121"/>
<path d="M54 46H58V50H54V46Z" fill="#212121"/>
<path d="M58 46H62V50H58V46Z" fill="#212121"/>
<path d="M62 46H66V50H62V46Z" fill="#212121"/>
<path d="M66 46H70V50H66V46Z" fill="#212121"/>
<path d="M70 46H74V50H70V46Z" fill="#212121"/>
<path d="M74 46H78V50H74V46Z" fill="#212121"/>
<path d="M78 46H82V50H78V46Z" fill="#212121"/>
<path d="M82 46H86V50H82V46Z" fill="#212121"/>
<path d="M86 46H90V50H86V46Z" fill="#212121"/>
<path d="M90 42H94V46H90V42Z" fill="#212121"/>
<path d="M90 38H94V42H90V38Z" fill="#212121"/>
<path d="M90 34H94V38H90V34Z" fill="#212121"/>
<path d="M90 30H94V34H90V30Z" fill="#212121"/>
<path d="M90 26H94V30H90V26Z" fill="#212121"/>
<path d="M90 22H94V26H90V22Z" fill="#212121"/>
<path d="M90 18H94V22H90V18Z" fill="#212121"/>
<path d="M78 22H82V26H78V22Z" fill="#212121"/>
<path d="M78 26H82V30H78V26Z" fill="#212121"/>
<path d="M78 30H82V34H78V30Z" fill="#212121"/>
<path d="M78 34H82V38H78V34Z" fill="#212121"/>
<path d="M74 38H78V42H74V38Z" fill="#212121"/>
<path d="M74 18H78V22H74V18Z" fill="#212121"/>
<path d="M70 18H74V22H70V18Z" fill="#212121"/>
<path d="M62 22H66V26H62V22Z" fill="#212121"/>
<path d="M66 18H70V22H66V18Z" fill="#212121"/>
<path d="M62 26H66V30H62V26Z" fill="#212121"/>
<path d="M62 30H66V34H62V30Z" fill="#212121"/>
<path d="M62 34H66V38H62V34Z" fill="#212121"/>
<path d="M66 38H70V42H66V38Z" fill="#212121"/>
<path d="M70 38H74V42H70V38Z" fill="#212121"/>
<path d="M90 14H94V18H90V14Z" fill="#212121"/>
<path d="M30 10H34V14H30V10Z" fill="#212121"/>
<path d="M26 10H30V14H26V10Z" fill="#212121"/>
<path d="M22 10H26V14H22V10Z" fill="#212121"/>
<path d="M18 10H22V14H18V10Z" fill="#212121"/>
</svg>
